<?xml version="1.0" encoding="UTF-8"?>
<svg width="3300px" height="2200px" viewBox="0 0 3300 2200" version="1.1" xmlns="http://www.w3.org/2000/svg" xmlns:xlink="http://www.w3.org/1999/xlink">
    <title>FajrIcon</title>
    <g id="Page-1" stroke="none" stroke-width="1" fill="none" fill-rule="evenodd">
        <g id="sunrise.fill">
            <g id="Notes">
                <rect id="artboard" fill="#FFFFFF" fill-rule="nonzero" x="0" y="0" width="3300" height="2200"></rect>
                <line x1="263" y1="292" x2="3036" y2="292" id="Path" stroke="#000000" stroke-width="0.5"></line>
                <text id="Weight/Scale-Variations" fill="#000000" fill-rule="nonzero" font-family="Helvetica-Bold, Helvetica" font-size="13" font-weight="bold">
                    <tspan x="263" y="322">Weight/Scale Variations</tspan>
                </text>
                <text id="Ultralight" fill="#000000" fill-rule="nonzero" font-family="Helvetica" font-size="13" font-weight="normal">
                    <tspan x="533.711" y="322">Ultralight</tspan>
                </text>
                <text id="Thin" fill="#000000" fill-rule="nonzero" font-family="Helvetica" font-size="13" font-weight="normal">
                    <tspan x="843.422" y="322">Thin</tspan>
                </text>
                <text id="Light" fill="#000000" fill-rule="nonzero" font-family="Helvetica" font-size="13" font-weight="normal">
                    <tspan x="1138.63" y="322">Light</tspan>
                </text>
                <text id="Regular" fill="#000000" fill-rule="nonzero" font-family="Helvetica" font-size="13" font-weight="normal">
                    <tspan x="1426.84" y="322">Regular</tspan>
                </text>
                <text id="Medium" fill="#000000" fill-rule="nonzero" font-family="Helvetica" font-size="13" font-weight="normal">
                    <tspan x="1723.06" y="322">Medium</tspan>
                </text>
                <text id="Semibold" fill="#000000" fill-rule="nonzero" font-family="Helvetica" font-size="13" font-weight="normal">
                    <tspan x="2015.77" y="322">Semibold</tspan>
                </text>
                <text id="Bold" fill="#000000" fill-rule="nonzero" font-family="Helvetica" font-size="13" font-weight="normal">
                    <tspan x="2326.48" y="322">Bold</tspan>
                </text>
                <text id="Heavy" fill="#000000" fill-rule="nonzero" font-family="Helvetica" font-size="13" font-weight="normal">
                    <tspan x="2618.19" y="322">Heavy</tspan>
                </text>
                <text id="Black" fill="#000000" fill-rule="nonzero" font-family="Helvetica" font-size="13" font-weight="normal">
                    <tspan x="2917.4" y="322">Black</tspan>
                </text>
                <line x1="263" y1="1903" x2="3036" y2="1903" id="Path" stroke="#000000" stroke-width="0.5"></line>
                <g id="Group" transform="translate(264.000000, 1918.000000)" fill="#000000" fill-rule="nonzero">
                    <path d="M8.24805,15.830078 C12.5547,15.830078 16.1387,12.25586 16.1387,7.94922 C16.1387,3.6426 12.5449,0.0684 8.23828,0.0684 C3.94141,0.0684 0.36719,3.6426 0.36719,7.94922 C0.36719,12.25586 3.95117,15.830078 8.24805,15.830078 Z M8.24805,14.345703 C4.70312,14.345703 1.87109,11.50391 1.87109,7.94922 C1.87109,4.3945 4.69336,1.5527 8.23828,1.5527 C11.793,1.5527 14.6348,4.3945 14.6445252,7.94922 C14.6543,11.50391 11.8027,14.345703 8.24805,14.345703 Z M8.22852,11.37695 C8.69727,11.37695 8.9707,11.06445 8.9707,10.54688 L8.9707,8.68164 L11.002,8.68164 C11.5,8.68164 11.832,8.42773 11.832,7.95898 C11.832,7.48047 11.5195,7.2168 11.002,7.2168 L8.9707,7.2168 L8.9707,5.18555 C8.9707,4.668 8.69727,4.3457 8.22852,4.3457 C7.75977,4.3457 7.50586,4.6875 7.50586,5.18555 L7.50586,7.2168 L5.49414,7.2168 C4.97656,7.2168 4.64453,7.48047 4.64453,7.95898 C4.64453,8.42773 4.99609,8.68164 5.49414,8.68164 L7.50586,8.68164 L7.50586,10.54688 C7.50586,11.04492 7.75977,11.37695 8.22852,11.37695 Z" id="Shape"></path>
                </g>
                <g id="Group" transform="translate(282.506000, 1915.000000)" fill="#000000" fill-rule="nonzero">
                    <path d="M10.709,20.91016 C16.1582,20.91016 20.6699,16.38867 20.6699,10.94922 C20.6699,5.5 16.1484,0.9883 10.6992,0.9883 C5.25977,0.9883 0.74805,5.5 0.74805,10.94922 C0.74805,16.38867 5.26953,20.91016 10.709,20.91016 Z M10.709,19.25 C6.09961,19.25 2.41797,15.55859 2.41797,10.94922 C2.41797,6.3398 6.08984,2.6484 10.6992,2.6484 C15.3086,2.6484 19,6.3398 19.009819,10.94922 C19.0195,15.55859 15.3184,19.25 10.709,19.25 Z M10.6797,15.33398 C11.207,15.33398 11.5098,14.98242 11.5098,14.40625 L11.5098,11.76953 L14.3223,11.76953 C14.8691,11.76953 15.25,11.48633 15.25,10.96875 C15.25,10.44141 14.8887,10.13867 14.3223,10.13867 L11.5098,10.13867 L11.5098,7.3164 C11.5098,6.75 11.207,6.3887 10.6797,6.3887 C10.1621,6.3887 9.8789,6.7695 9.8789,7.3164 L9.8789,10.13867 L7.07617,10.13867 C6.50977,10.13867 6.13867,10.44141 6.13867,10.96875 C6.13867,11.48633 6.5293,11.76953 7.07617,11.76953 L9.8789,11.76953 L9.8789,14.40625 C9.8789,14.96289 10.1621,15.33398 10.6797,15.33398 Z" id="Shape"></path>
                </g>
                <g id="Group" transform="translate(306.924000, 1913.000000)" fill="#000000" fill-rule="nonzero">
                    <path d="M12.9707,25.66406 C19.9336,25.66406 25.6953,19.9023438 25.6953,12.94922 C25.6953,5.9863 19.9238,0.2246 12.9609,0.2246 C6.00781,0.2246 0.25586,5.9863 0.25586,12.94922 C0.25586,19.9023438 6.01758,25.66406 12.9707,25.66406 Z M12.9707,23.84766 C6.93555,23.84766 2.08203,18.98438 2.08203,12.94922 C2.08203,6.9043 6.92578,2.0508 12.9609,2.0508 C19.0059,2.0508 23.8594,6.9043 23.8691148,12.94922 C23.8789,18.98438 19.0156,23.84766 12.9707,23.84766 Z M12.9414,18.61328 C13.5176,18.61328 13.8594,18.22266 13.8594,17.61719 L13.8594,13.86719 L17.7754,13.86719 C18.3711,13.86719 18.7812,13.53516 18.7812,12.97852 C18.7812,12.40234 18.3906,12.06055 17.7754,12.06055 L13.8594,12.06055 L13.8594,8.1348 C13.8594,7.5195 13.5176,7.1289 12.9414,7.1289 C12.375,7.1289 12.0527,7.5391 12.0527,8.1348 L12.0527,12.06055 L8.1465,12.06055 C7.53125,12.06055 7.13086,12.40234 7.13086,12.97852 C7.13086,13.53516 7.55078,13.86719 8.1465,13.86719 L12.0527,13.86719 L12.0527,17.61719 C12.0527,18.20312 12.375,18.61328 12.9414,18.61328 Z" id="Shape"></path>
                </g>
                <text id="Design-Variations" fill="#000000" fill-rule="nonzero" font-family="Helvetica-Bold, Helvetica" font-size="13" font-weight="bold">
                    <tspan x="263" y="1953">Design Variations</tspan>
                </text>
                <text id="Symbols-are-supported-in-up-to-nine-weights-and-three-scales." fill="#000000" fill-rule="nonzero" font-family="Helvetica" font-size="13" font-weight="normal">
                    <tspan x="263" y="1971">Symbols are supported in up to nine weights and three scales.</tspan>
                </text>
                <text id="For-optimal-layout-with-text-and-other-symbols,-vertically-align" fill="#000000" fill-rule="nonzero" font-family="Helvetica" font-size="13" font-weight="normal">
                    <tspan x="263" y="1989">For optimal layout with text and other symbols, vertically align</tspan>
                </text>
                <text id="symbols-with-the-adjacent-text." fill="#000000" fill-rule="nonzero" font-family="Helvetica" font-size="13" font-weight="normal">
                    <tspan x="263" y="2007">symbols with the adjacent text.</tspan>
                </text>
                <line x1="776" y1="1919" x2="776" y2="1933" id="Path" stroke="#00AEEF" stroke-width="0.5"></line>
                <g id="Group" transform="translate(778.000000, 1918.000000)" fill="#000000" fill-rule="nonzero">
                    <path d="M1.31055,15.126953 C1.82812,15.126953 2.08203,14.9316406 2.26758,14.394531 L3.52734,10.9375 L9.2891,10.9375 L10.5488,14.394531 C10.7344,14.9316406 10.9883,15.126953 11.4961,15.126953 C12.0137,15.126953 12.3457,14.814453 12.3457,14.326172 C12.3457,14.160156 12.3164,14.013672 12.2383,13.79883 L7.6582,1.6113 C7.43359,1.0059 7.0332,0.7129 6.4082,0.7129 C5.80273,0.7129 5.39258,1.0059 5.17773,1.6016 L0.59766,13.80859 C0.51953,14.023438 0.49023,14.169922 0.49023,14.335938 C0.49023,14.824219 0.80273,15.126953 1.31055,15.126953 Z M4.00586,9.46289 L6.37891,2.8906 L6.42773,2.8906 L8.8008,9.46289 L4.00586,9.46289 Z" id="Shape"></path>
                </g>
                <line x1="792.836" y1="1919" x2="792.836" y2="1933" id="Path" stroke="#00AEEF" stroke-width="0.5"></line>
                <text id="Margins" fill="#000000" fill-rule="nonzero" font-family="Helvetica-Bold, Helvetica" font-size="13" font-weight="bold">
                    <tspan x="776" y="1953">Margins</tspan>
                </text>
                <text id="Leading-and-trailing-margins-on-the-left-and-right-side-of-each-symbol" fill="#000000" fill-rule="nonzero" font-family="Helvetica" font-size="13" font-weight="normal">
                    <tspan x="776" y="1971">Leading and trailing margins on the left and right side of each symbol</tspan>
                </text>
                <text id="can-be-adjusted-by-modifying-the-x-location-of-the-margin-guidelines." fill="#000000" fill-rule="nonzero" font-family="Helvetica" font-size="13" font-weight="normal">
                    <tspan x="776" y="1989">can be adjusted by modifying the x-location of the margin guidelines.</tspan>
                </text>
                <text id="Modifications-are-automatically-applied-proportionally-to-all" fill="#000000" fill-rule="nonzero" font-family="Helvetica" font-size="13" font-weight="normal">
                    <tspan x="776" y="2007">Modifications are automatically applied proportionally to all</tspan>
                </text>
                <text id="scales-and-weights." fill="#000000" fill-rule="nonzero" font-family="Helvetica" font-size="13" font-weight="normal">
                    <tspan x="776" y="2025">scales and weights.</tspan>
                </text>
                <g id="Group" transform="translate(1291.000000, 1914.000000)" fill="#000000" fill-rule="nonzero">
                    <path d="M0.8418,20.86523 L2.54102,22.57422 C3.40039,23.44336 4.38672,23.38477 5.31445,22.35938 L15.4902,11.14844 C15.7539,11.23633 16.0273,11.2168 16.3398,11.1582 L17.4043,10.96289 L18.0684,11.63672 L18.0293,12.19336 C17.9902,12.69141 18.1172,13.07227 18.6055,13.55078 L19.3672,14.29297 C19.8457,14.77148 20.4609,14.80078 20.9297,14.33203 L23.8398,11.41211 C24.3086,10.94336 24.2891,10.34766 23.8105,9.86914 L23.0391,9.10742 C22.5605,8.6289 22.1895,8.4727 21.7109,8.5117 L21.1348,8.5605 L20.4902,7.9258 L20.7344,6.8027 C20.8613,6.2363 20.7051,5.7969 20.1191,5.2109 L17.9219,3.0234 C14.582,-0.2969 10.1484,-0.2188 7.25781,2.6719 C6.83789,3.082 6.80859,3.6582 7.04297,4.0488 C7.27734,4.4102 7.73633,4.6445 8.3809,4.4785 C9.8457,4.1367 11.3691,4.0781 12.7949,5.0156 L12.209,6.4707 C12.0137,6.9492 11.9844,7.3496 12.1113,7.7109 L1.04688,18.101562 C0.06055,19.0195312 -0.01758,19.996094 0.8418,20.86523 Z M8.752,3.043 C11.1836,1.2656 14.4746,1.5684 16.7012,3.7949 L19.1328,6.207 C19.3672,6.4414 19.4062,6.627 19.3379,6.9688 L19.0156,8.4531 L20.5195,9.9375 L21.5059,9.87891 C21.7598,9.86914 21.8379,9.88867 22.0332,10.08398 L22.6094,10.66016 L20.168,13.10156 L19.5918,12.52539 C19.3965,12.33008 19.3672,12.25195 19.377,11.98828 L19.4453,11.01172 L17.9512,9.52734 L16.4277,9.78125 C16.1055,9.84961 15.959,9.82031 15.7148,9.58594 L13.7129,7.584 C13.459,7.3496 13.4297,7.1836 13.5859,6.8125 L14.4648,4.7227 C12.9023,3.2676 10.8711,2.6426 8.8398,3.2383 C8.6836,3.2773 8.625,3.1504 8.752,3.043 Z M3.27344,21.3047 L2.10156,20.14258 C1.63281,19.683594 1.74023,19.341797 2.14062,18.9804688 L12.9512,8.8047 L14.416,10.28906 L4.42578,21.27539 C4.07422,21.67578 3.74219,21.77344 3.27344,21.3047 Z" id="Shape"></path>
                </g>
                <text id="Exporting" fill="#000000" fill-rule="nonzero" font-family="Helvetica-Bold, Helvetica" font-size="13" font-weight="bold">
                    <tspan x="1289" y="1953">Exporting</tspan>
                </text>
                <text id="Symbols-should-be-outlined-when-exporting-to-ensure-the" fill="#000000" fill-rule="nonzero" font-family="Helvetica" font-size="13" font-weight="normal">
                    <tspan x="1289" y="1971">Symbols should be outlined when exporting to ensure the</tspan>
                </text>
                <text id="design-is-preserved-when-submitting-to-Xcode." fill="#000000" fill-rule="nonzero" font-family="Helvetica" font-size="13" font-weight="normal">
                    <tspan x="1289" y="1989">design is preserved when submitting to Xcode.</tspan>
                </text>
                <text id="template-version" fill="#000000" fill-rule="nonzero" font-family="Helvetica" font-size="13" font-weight="normal">
                    <tspan x="2952" y="1933">Template v.2.0</tspan>
                </text>
                <text id="Requires-Xcode-12-or-greater" fill="#000000" fill-rule="nonzero" font-family="Helvetica" font-size="13" font-weight="normal">
                    <tspan x="2865" y="1951">Requires Xcode 12 or greater</tspan>
                </text>
                <text id="Generated-from-sunrise.fill" fill="#000000" fill-rule="nonzero" font-family="Helvetica" font-size="13" font-weight="normal">
                    <tspan x="2883" y="1969">Generated from sunrise.fill</tspan>
                </text>
                <text id="Typeset-at-100-points" fill="#000000" fill-rule="nonzero" font-family="Helvetica" font-size="13" font-weight="normal">
                    <tspan x="2912" y="1987">Typeset at 100 points</tspan>
                </text>
                <text id="Small" fill="#000000" fill-rule="nonzero" font-family="Helvetica" font-size="13" font-weight="normal">
                    <tspan x="263" y="726">Small</tspan>
                </text>
                <text id="Medium" fill="#000000" fill-rule="nonzero" font-family="Helvetica" font-size="13" font-weight="normal">
                    <tspan x="263" y="1156">Medium</tspan>
                </text>
                <text id="Large" fill="#000000" fill-rule="nonzero" font-family="Helvetica" font-size="13" font-weight="normal">
                    <tspan x="263" y="1586">Large</tspan>
                </text>
            </g>
            <g id="Guides" transform="translate(263.000000, 625.000000)">
                <g id="H-reference" transform="translate(76.000000, 0.000000)" fill="#27AAE1" fill-rule="nonzero">
                    <path d="M0.976562,71 L3.66211,71 L12.9883,46.5371 L45.752,46.5371 L55.127,71 L57.7637,71 L30.6152,0.541 L28.125,0.541 L0.976562,71 Z M29.3457,3.8613 L29.4434,3.8613 L44.873,44.291 L13.8672,44.291 L29.3457,3.8613 Z" id="Shape"></path>
                </g>
                <line x1="0" y1="71" x2="2773" y2="71" id="Baseline-S" stroke="#27AAE1" stroke-width="0.5"></line>
                <line x1="0" y1="0.541" x2="2773" y2="0.541" id="Capline-S" stroke="#27AAE1" stroke-width="0.5"></line>
                <g id="H-reference" transform="translate(76.000000, 430.000000)" fill="#27AAE1" fill-rule="nonzero">
                    <path d="M0.976562,71 L3.66211,71 L12.9883,46.5371 L45.752,46.5371 L55.127,71 L57.7637,71 L30.6152,0.541 L28.125,0.541 L0.976562,71 Z M29.3457,3.8613 L29.4434,3.8613 L44.873,44.291 L13.8672,44.291 L29.3457,3.8613 Z" id="Shape"></path>
                </g>
                <line x1="0" y1="501" x2="2773" y2="501" id="Baseline-M" stroke="#27AAE1" stroke-width="0.5"></line>
                <line x1="0" y1="430.54" x2="2773" y2="430.54" id="Capline-M" stroke="#27AAE1" stroke-width="0.5"></line>
                <g id="H-reference" transform="translate(76.000000, 860.000000)" fill="#27AAE1" fill-rule="nonzero">
                    <path d="M0.976562,71 L3.66211,71 L12.9883,46.5371 L45.752,46.5371 L55.127,71 L57.7637,71 L30.6152,0.541 L28.125,0.541 L0.976562,71 Z M29.3457,3.8613 L29.4434,3.8613 L44.873,44.291 L13.8672,44.291 L29.3457,3.8613 Z" id="Shape"></path>
                </g>
                <line x1="0" y1="931" x2="2773" y2="931" id="Baseline-L" stroke="#27AAE1" stroke-width="0.5"></line>
                <line x1="0" y1="860.54" x2="2773" y2="860.54" id="Capline-L" stroke="#27AAE1" stroke-width="0.5"></line>
                <line x1="1111.82" y1="405.79" x2="1111.82" y2="525.12" id="left-margin" stroke="#00AEEF" stroke-width="0.5"></line>
                <line x1="1261.87" y1="405.79" x2="1261.87" y2="525.12" id="right-margin" stroke="#00AEEF" stroke-width="0.5"></line>
            </g>
            <g id="Symbols" transform="translate(478.000000, 611.000000)" fill="#000000" fill-rule="nonzero">
                <g id="Black-L" transform="translate(2374.600000, 827.000000)">
                    <path d="M80.8262,55.6465 C84.879,55.6465 88.199,52.1309 88.199,47.9805 L88.15,29.9629 L86.734,18.8301 L90.494,24.7383 L95.426,30.4512 C96.939,32.3066 98.746,33.6738 101.334,33.6738 C105.24,33.6738 108.17,30.6953 108.17,27.0332 C108.17,24.6895 106.803,22.6875 104.947,20.9297 L86.393,3.4 C84.488,1.643 82.9258,0.91 80.8262,0.91 C78.6777,0.91 77.1152,1.643 75.2109,3.4 L56.6562,20.9297 C54.8008,22.6875 53.4336,24.6895 53.4336,27.0332 C53.4336,30.6953 56.3633,33.6738 60.2695,33.6738 C62.9062,33.6738 64.6641,32.3066 66.1777,30.4512 L71.3535,24.543 L74.8691,18.8301 L73.4531,29.9629 L73.4043,47.9805 C73.4043,52.1309 76.7734,55.6465 80.8262,55.6465 Z M113.492,70.7832 C116.373,73.6152 121.158,73.5176 124.186,70.4902 L132.047,62.7754 C135.074,59.6992 135.074,54.9141 132.193,52.0332 C129.361,49.1523 124.576,49.2012 121.549,52.2773 L113.688,60.0898 C110.709,63.0684 110.611,67.9023 113.492,70.7832 Z M37.4668,70.4902 C40.4453,73.5176 45.2793,73.6641 48.1602,70.7832 C50.9922,67.9023 50.9434,63.0684 47.9648,60.0898 L40.1035,52.2773 C37.0273,49.2012 32.291,49.2012 29.4102,52.0332 C26.5293,54.9141 26.5293,59.6992 29.6055,62.7754 L37.4668,70.4902 Z M115.299,103.2539 C115.299,84.1133 99.82,68.5859 80.8262,68.5859 C61.7832,68.5859 46.3535,84.1133 46.3535,103.2539 C46.3535,105.5 46.5977,107.7461 47.1348,109.8457 L114.518,109.8457 C115.055,107.7461 115.299,105.5 115.299,103.2539 Z M15.7871,105.6953 L26.9199,105.793 C31.168,105.793 34.6348,102.375 34.5859,98.3223 C34.5859,94.2207 31.168,90.9004 26.9199,90.9004 L15.7871,90.9004 C11.5879,90.9004 8.1211,94.2207 8.1211,98.3223 C8.1211,102.375 11.6367,105.6953 15.7871,105.6953 Z M134.732,105.6953 L145.816,105.6953 C150.113,105.6953 153.531,102.375 153.531,98.3223 C153.531,94.2207 150.113,90.9004 145.816,90.9004 L134.732,90.9004 C130.533,90.9004 127.018,94.2207 127.018,98.3223 C127.066,102.375 130.582,105.6953 134.732,105.6953 Z M9.1465,138.7031 L152.457,138.7031 C157.535,138.7031 161.539,134.3574 161.539,129.4746 C161.539,124.39648 157.584,120.24609 152.457,120.24609 L9.1465,120.24609 C4.0684,120.24609 0.0645,124.54297 0.0645,129.4746 C0.0645,134.2109 4.166,138.7031 9.1465,138.7031 Z" id="Shape"></path>
                </g>
                <g id="Heavy-L" transform="translate(2077.890000, 828.000000)">
                    <path d="M80.8262,54.0605 C84.439,54.0605 87.467,50.9355 87.467,47.127 L87.467,27.5957 L86.197,16.756 L90.299,22.6641 L96.109,29.0117 C97.428,30.623 99.039,31.7949 101.285,31.7949 C104.801,31.7949 107.389,29.1582 107.389,25.8867 C107.389,23.7871 106.266,22.0781 104.605,20.4668 L85.758,2.693 C84.049,1.082 82.6816,0.447 80.8262,0.447 C78.9707,0.447 77.5547,1.082 75.8457,2.693 L56.998,20.4668 C55.3867,22.0781 54.2148,23.7871 54.2148,25.8867 C54.2148,29.1582 56.8027,31.7949 60.3184,31.7949 C62.5645,31.7949 64.1758,30.623 65.543,29.0117 L71.5977,22.3711 L75.4062,16.756 L74.1855,27.5957 L74.1367,47.127 C74.1367,50.9355 77.1641,54.0605 80.8262,54.0605 Z M113.443,69.7832 C116.031,72.3223 120.377,72.2734 123.111,69.5391 L132.047,60.7012 C134.83,57.918 134.781,53.6211 132.193,50.9844 C129.654,48.3965 125.357,48.4453 122.574,51.2285 L113.639,60.0664 C110.904,62.8008 110.855,67.1953 113.443,69.7832 Z M38.4922,69.5391 C41.2266,72.2734 45.6211,72.3711 48.209,69.7832 C50.748,67.1465 50.748,62.8008 47.9648,60.0664 L39.0781,51.2285 C36.2949,48.4453 32.0469,48.4453 29.4102,50.9844 C26.8223,53.5723 26.8223,57.918 29.6055,60.7012 L38.4922,69.5391 Z M115.152,102.2051 C115.152,83.2598 99.723,67.7812 80.8262,67.7812 C61.9297,67.7812 46.5,83.2598 46.5,102.2051 C46.5,105.1348 46.9883,107.9668 47.8672,110.55469 L113.736,110.55469 C114.664,107.9668 115.152,105.1348 115.152,102.2051 Z M15.1035,104.793 L27.6523,104.8418 C31.6074,104.8418 34.6836,101.7656 34.6836,98.1035 C34.6348,94.4414 31.6074,91.4141 27.6523,91.4141 L15.1035,91.4141 C11.2461,91.4141 8.1211,94.4414 8.1211,98.1035 C8.1211,101.7656 11.2949,104.793 15.1035,104.793 Z M134,104.793 L146.549,104.793 C150.455,104.793 153.531,101.7656 153.531,98.1035 C153.531,94.4414 150.455,91.4141 146.549,91.4141 L134,91.4141 C130.094,91.4141 126.92,94.4414 126.969,98.1035 C126.969,101.7656 130.143,104.793 134,104.793 Z M8.1211,136.2383 L153.482,136.2383 C157.975,136.2383 161.539,132.4785 161.539,128.1816 C161.539,123.73828 158.023,120.125 153.482,120.125 L8.1211,120.125 C3.6289,120.125 0.0645,123.83594 0.0645,128.1816 C0.0645,132.3809 3.6777,136.2383 8.1211,136.2383 Z" id="Shape"></path>
                </g>
                <g id="Bold-L" transform="translate(1781.180000, 829.000000)">
                    <path d="M80.8262,52.4746 C84,52.4746 86.686,49.6426 86.686,46.2734 L86.686,25.082 L85.66,14.535 L90.104,20.3945 L96.842,27.5723 C98.014,28.8906 99.43,29.8184 101.236,29.8184 C104.264,29.8184 106.51,27.5723 106.51,24.6426 C106.51,22.8848 105.631,21.4688 104.215,20.1016 L85.074,2.035 C83.5605,0.619 82.3887,0.082 80.8262,0.082 C79.2637,0.082 78.043,0.619 76.5293,2.035 L57.3887,20.1016 C55.9727,21.4688 55.0938,22.8848 55.0938,24.6426 C55.0938,27.5723 57.3398,29.8184 60.3672,29.8184 C62.1738,29.8184 63.6387,28.8906 64.7617,27.5723 L71.8418,20.0527 L75.9922,14.535 L74.9668,25.082 L74.918,46.2734 C74.918,49.6426 77.6035,52.4746 80.8262,52.4746 Z M113.395,68.7832 C115.689,71.0293 119.498,70.9805 121.939,68.5391 L131.998,58.5293 C134.537,56.0391 134.488,52.2793 132.193,49.9844 C129.947,47.6895 126.188,47.6895 123.697,50.1797 L113.639,60.2383 C111.197,62.6797 111.1,66.5371 113.395,68.7832 Z M39.6641,68.5391 C42.1543,70.9805 46.0117,71.0781 48.2578,68.7832 C50.5039,66.4883 50.4551,62.6797 48.0137,60.2383 L37.9551,50.1797 C35.4648,47.6895 31.7051,47.7383 29.4102,49.9844 C27.1152,52.2305 27.1152,56.0391 29.6055,58.5293 L39.6641,68.5391 Z M114.908,101.2051 C114.908,82.4551 99.576,67.0254 80.8262,67.0254 C62.0762,67.0254 46.6953,82.4551 46.6953,101.2051 C46.6953,104.8672 47.4277,108.33398 48.7461,111.45898 L112.906,111.45898 C114.225,108.33398 114.908,104.8672 114.908,101.2051 Z M14.3223,103.8906 L28.5312,103.8906 C32.0469,103.8906 34.7812,101.2051 34.7324,97.9824 C34.7324,94.7598 32.0469,92.123 28.5312,92.123 L14.3223,92.123 C10.8555,92.123 8.1211,94.7598 8.1211,97.9824 C8.1211,101.2051 10.9043,103.8906 14.3223,103.8906 Z M133.121,103.8906 L147.33,103.8906 C150.846,103.8906 153.531,101.2051 153.531,97.9824 C153.531,94.7598 150.846,92.123 147.33,92.123 L133.121,92.123 C129.654,92.123 126.871,94.7598 126.871,97.9824 C126.92,101.2051 129.703,103.8906 133.121,103.8906 Z M6.9492,133.627 L154.654,133.627 C158.463,133.627 161.539,130.4531 161.539,126.8398 C161.539,123.12891 158.512,120.10156 154.654,120.10156 L6.9492,120.10156 C3.1406,120.10156 0.0645,123.22656 0.0645,126.8398 C0.0645,130.4043 3.1895,133.627 6.9492,133.627 Z" id="Shape"></path>
                </g>
                <g id="Semibold-L" transform="translate(1484.460000, 870.000000)">
                    <path d="M81.0645,10.473 C83.8259237,10.473 86.0645,8.23442375 86.0645,5.473 C86.0645,2.71157625 83.8259237,0.473 81.0645,0.473 C78.3030763,0.473 76.0645,2.71157625 76.0645,5.473 C76.0645,8.23442375 78.3030763,10.473 81.0645,10.473 Z M132.0645,62.473 C134.825924,62.473 137.0645,60.2344237 137.0645,57.473 C137.0645,54.7115763 134.825924,52.473 132.0645,52.473 C129.303076,52.473 127.0645,54.7115763 127.0645,57.473 C127.0645,60.2344237 129.303076,62.473 132.0645,62.473 Z M117.0645,29.473 C119.825924,29.473 122.0645,27.2344237 122.0645,24.473 C122.0645,21.7115763 119.825924,19.473 117.0645,19.473 C114.303076,19.473 112.0645,21.7115763 112.0645,24.473 C112.0645,27.2344237 114.303076,29.473 117.0645,29.473 Z M30.0645,62.473 C32.8259237,62.473 35.0645,60.2344237 35.0645,57.473 C35.0645,54.7115763 32.8259237,52.473 30.0645,52.473 C27.3030763,52.473 25.0645,54.7115763 25.0645,57.473 C25.0645,60.2344237 27.3030763,62.473 30.0645,62.473 Z M45.0645,29.473 C47.8259237,29.473 50.0645,27.2344237 50.0645,24.473 C50.0645,21.7115763 47.8259237,19.473 45.0645,19.473 C42.3030763,19.473 40.0645,21.7115763 40.0645,24.473 C40.0645,27.2344237 42.3030763,29.473 45.0645,29.473 Z M114.811,60.2051 C114.811,41.5527 99.479,26.1719 80.8262,26.1719 C62.1738,26.1719 46.8418,41.5527 46.8418,60.2051 C46.8418,64.3555 47.7207,68.26172 49.332,71.77734 L112.32,71.77734 C113.883,68.26172 114.811,64.3555 114.811,60.2051 Z M6.168,91.5039 L155.484,91.5039 C158.805,91.5039 161.539,88.8184 161.539,85.6445 C161.539,82.42188 158.805,79.78516 155.484,79.78516 L6.168,79.78516 C2.7988,79.78516 0.0645,82.4707 0.0645,85.6445 C0.0645,88.7695 2.7988,91.5039 6.168,91.5039 Z" id="Shape"></path>
                </g>
                <g id="Medium-L" transform="translate(1187.750000, 829.000000)">
                    <path d="M80.8262,51.6934 C83.4629,51.6934 85.709,49.3496 85.709,46.4688 L85.709,23.2754 L84.928,13.119 L89.859,18.9297 L97.77,27.0352 C98.697,28.0117 99.869,28.6465 101.188,28.6465 C103.678,28.6465 105.484,26.8398 105.484,24.4473 C105.484,23.0312 104.898,21.957 103.775,20.8828 L84.244,2.426 C82.9746,1.254 81.998,0.814 80.8262,0.814 C79.6055,0.814 78.6289,1.254 77.4082,2.426 L57.8281,20.8828 C56.7539,21.957 56.1191,23.0312 56.1191,24.4473 C56.1191,26.8398 57.9258,28.6465 60.416,28.6465 C61.7344,28.6465 62.9551,28.0117 63.8828,27.0352 L72.1836,18.4902 L76.6758,13.119 L75.8945,23.2754 L75.8945,46.4688 C75.8945,49.3496 78.1406,51.6934 80.8262,51.6934 Z M113.346,68.7832 C115.25,70.6387 118.424,70.6387 120.523,68.5391 L131.998,57.1133 C134.195,54.9648 134.098,51.8398 132.193,49.9355 C130.387,48.0312 127.213,47.9824 125.064,50.1309 L113.59,61.6055 C111.49,63.7051 111.441,66.9277 113.346,68.7832 Z M41.0801,68.5391 C43.2285,70.6387 46.4512,70.6875 48.3066,68.7832 C50.1621,66.8789 50.1621,63.7051 48.0625,61.6055 L36.5879,50.1309 C34.4395,47.9824 31.3145,48.0801 29.4102,49.9355 C27.5059,51.791 27.457,54.9648 29.6543,57.1133 L41.0801,68.5391 Z M114.664,101.2051 C114.664,82.6504 99.381,67.2695 80.8262,67.2695 C62.2715,67.2695 46.9395,82.6504 46.9395,101.2051 C46.9395,105.6973 47.9648,109.99414 49.7715,113.80273 L111.832,113.80273 C113.688,109.99414 114.664,105.6973 114.664,101.2051 Z M13.3457,103.9883 L29.5566,103.9883 C32.584,103.9883 34.8789,101.7422 34.8301,99.0566 C34.7812,96.3711 32.584,94.1738 29.5566,94.1738 L13.3457,94.1738 C10.3672,94.1738 8.1211,96.3711 8.1211,99.0566 C8.1211,101.7422 10.416,103.9883 13.3457,103.9883 Z M132.096,103.9883 L148.258,103.9883 C151.285,103.9883 153.531,101.7422 153.531,99.0566 C153.531,96.3711 151.285,94.1738 148.258,94.1738 L132.096,94.1738 C129.117,94.1738 126.725,96.3711 126.773,99.0566 C126.822,101.7422 129.117,103.9883 132.096,103.9883 Z M5.5332,131.625 L156.07,131.625 C159.049,131.625 161.539,129.2812 161.539,126.4492 C161.539,123.61719 159.098,121.27344 156.07,121.27344 L5.5332,121.27344 C2.5547,121.27344 0.0645,123.61719 0.0645,126.4492 C0.0645,129.2812 2.5547,131.625 5.5332,131.625 Z" id="Shape"></path>
                </g>
                <g id="Regular-L" transform="translate(891.040000, 875.000000)">
                    <path d="M80.5645,9.205 C83.0497814,9.205 85.0645,7.19028137 85.0645,4.705 C85.0645,2.21971863 83.0497814,0.205 80.5645,0.205 C78.0792186,0.205 76.0645,2.21971863 76.0645,4.705 C76.0645,7.19028137 78.0792186,9.205 80.5645,9.205 Z M116.5645,24.205 C119.049781,24.205 121.0645,22.1902814 121.0645,19.705 C121.0645,17.2197186 119.049781,15.205 116.5645,15.205 C114.079219,15.205 112.0645,17.2197186 112.0645,19.705 C112.0645,22.1902814 114.079219,24.205 116.5645,24.205 Z M44.5645,24.205 C47.0497814,24.205 49.0645,22.1902814 49.0645,19.705 C49.0645,17.2197186 47.0497814,15.205 44.5645,15.205 C42.0792186,15.205 40.0645,17.2197186 40.0645,19.705 C40.0645,22.1902814 42.0792186,24.205 44.5645,24.205 Z M30.5645,58.205 C33.0497814,58.205 35.0645,56.1902814 35.0645,53.705 C35.0645,51.2197186 33.0497814,49.205 30.5645,49.205 C28.0792186,49.205 26.0645,51.2197186 26.0645,53.705 C26.0645,56.1902814 28.0792186,58.205 30.5645,58.205 Z M131.5645,58.205 C134.049781,58.205 136.0645,56.1902814 136.0645,53.705 C136.0645,51.2197186 134.049781,49.205 131.5645,49.205 C129.079219,49.205 127.0645,51.2197186 127.0645,53.705 C127.0645,56.1902814 129.079219,58.205 131.5645,58.205 Z M114.566,55.2051 C114.566,36.748 99.283,21.416 80.8262,21.416 C62.3691,21.416 47.0859,36.748 47.0859,55.2051 C47.0859,60.18555 48.2578,64.92188 50.3574,69.121094 L111.246,69.121094 C113.346,64.92188 114.566,60.18555 114.566,55.2051 Z M4.752,84.5508 L156.852,84.5508 C159.391,84.5508 161.539,82.5977 161.539,80.2539 C161.539,77.86133 159.391,75.95703 156.852,75.95703 L4.752,75.95703 C2.2129,75.95703 0.0645,77.86133 0.0645,80.2539 C0.0645,82.5977 2.2129,84.5508 4.752,84.5508 Z" id="Shape"></path>
                </g>
                <g id="Light-L" transform="translate(594.330000, 831.000000)">
                    <path d="M80.8262,48.7656 C82.6328,48.7656 84.146,47.1543 84.146,45.2012 L84.146,19.9082 L83.6582,9.312 L89.566,15.709 L98.99,25.2305 C99.625,25.8652 100.455,26.2559 101.236,26.2559 C102.945,26.2559 104.166,25.0352 104.166,23.3262 C104.166,22.3496 103.775,21.6172 102.994,20.8359 L83.0723,1.646 C82.291,0.865 81.5586,0.523 80.8262,0.523 C80.0449,0.523 79.3125,0.865 78.5312,1.646 L58.6094,20.8359 C57.8281,21.6172 57.4375,22.3496 57.4375,23.3262 C57.4375,25.0352 58.707,26.2559 60.3672,26.2559 C61.1973,26.2559 61.9785,25.8652 62.6133,25.2305 L72.3301,15.3672 L77.9453,9.312 L77.457,19.9082 L77.457,45.2012 C77.457,47.1543 78.9707,48.7656 80.8262,48.7656 Z M113.297,66.5391 C114.566,67.7598 116.764,67.7598 118.131,66.3926 L132.096,52.4277 C133.561,51.0117 133.512,48.9121 132.193,47.6426 C131.021,46.373 128.922,46.3242 127.408,47.7402 L113.443,61.7051 C112.076,63.1211 112.027,65.3184 113.297,66.5391 Z M43.5215,66.3926 C44.8887,67.7598 47.0859,67.8086 48.3555,66.5391 C49.5762,65.2695 49.5762,63.1211 48.209,61.7051 L34.1953,47.7402 C32.7305,46.3242 30.6797,46.373 29.4102,47.6426 C28.0918,48.8633 28.043,51.0117 29.5566,52.4277 L43.5215,66.3926 Z M113.98,98.9609 C113.98,80.7969 99.039,65.7578 80.8262,65.7578 C62.6133,65.7578 47.623,80.7969 47.623,98.9609 C47.623,104.47852 49.0879,109.75195 51.6758,114.244141 L109.977,114.244141 C112.516,109.75195 113.98,104.47852 113.98,98.9609 Z M11.5879,100.7188 L31.3633,100.7188 C33.4629,100.7188 34.9277,99.2051 34.8789,97.3984 C34.8789,95.6406 33.4141,94.127 31.3633,94.127 L11.5879,94.127 C9.6348,94.127 8.1211,95.6406 8.1211,97.3984 C8.1211,99.2051 9.6348,100.7188 11.5879,100.7188 Z M130.24,100.7188 L150.016,100.7188 C152.066,100.7188 153.531,99.2051 153.531,97.3984 C153.531,95.6406 152.066,94.127 150.016,94.127 L130.24,94.127 C128.287,94.127 126.725,95.6406 126.725,97.3984 C126.773,99.2051 128.287,100.7188 130.24,100.7188 Z M3.6777,126.8906 L157.975,126.8906 C159.928,126.8906 161.539,125.4258 161.539,123.61914 C161.539,121.8125 159.928,120.34766 157.975,120.34766 L3.6777,120.34766 C1.7246,120.34766 0.0645,121.8125 0.0645,123.61914 C0.0645,125.4258 1.7246,126.8906 3.6777,126.8906 Z" id="Shape"></path>
                </g>
                <g id="Thin-L" transform="translate(297.620000, 833.000000)">
                    <path d="M80.8262,46.0332 C81.9004,46.0332 82.7793,45.1543 82.7793,44.0312 L82.7793,17.4199 L82.4863,6.043 L89.371,13.1719 L99.918,23.9629 C100.406,24.4023 100.895,24.5977 101.383,24.5977 C102.408,24.5977 103.238,23.7676 103.238,22.6445 C103.238,21.9609 102.896,21.4238 102.311,20.7891 L82.2422,0.965 C81.8027,0.525 81.2656,0.281 80.8262,0.281 C80.3379,0.281 79.8008,0.525 79.3613,0.965 L59.293,20.7891 C58.707,21.4238 58.3652,21.9609 58.3652,22.6445 C58.3652,23.7676 59.1953,24.5977 60.2695,24.5977 C60.7578,24.5977 61.2461,24.4023 61.6855,23.9629 L72.2812,13.123 L79.1172,6.043 L78.8242,17.4199 L78.8242,44.0312 C78.8242,45.1543 79.7031,46.0332 80.8262,46.0332 Z M113.297,64.1973 C114.029,64.8809 115.299,64.8809 115.982,64.2461 L132.242,47.9375 C133.072,47.2051 132.975,45.9844 132.193,45.3008 C131.559,44.5684 130.387,44.5195 129.557,45.252 L113.297,61.5117 C112.613,62.1953 112.613,63.5137 113.297,64.1973 Z M45.6699,64.2461 C46.3535,64.8809 47.623,64.9297 48.3555,64.1973 C49.0391,63.4648 49.0391,62.1953 48.3555,61.5117 L32.0957,45.252 C31.2656,44.5195 30.0938,44.5684 29.4102,45.3008 C28.6289,45.9844 28.5801,47.2051 29.4102,47.9375 L45.6699,64.2461 Z M113.248,96.6191 C113.248,78.7969 98.697,64.1484 80.8262,64.1484 C62.9551,64.1484 48.3555,78.7969 48.3555,96.6191 C48.3555,102.91797 50.2109,108.77734 53.4336,113.70898 L108.219,113.70898 C111.441,108.77734 113.248,102.91797 113.248,96.6191 Z M9.9766,96.9609 L33.0234,96.9609 C34.1465,96.9609 34.9277,96.082 34.8789,95.0566 C34.8789,94.0801 34.0977,93.2012 33.0234,93.2012 L9.9766,93.2012 C9,93.2012 8.1211,94.0801 8.1211,95.0566 C8.1211,96.082 9,96.9609 9.9766,96.9609 Z M128.629,96.9609 L151.627,96.9609 C152.701,96.9609 153.531,96.082 153.531,95.0566 C153.531,94.0801 152.701,93.2012 151.627,93.2012 L128.629,93.2012 C127.652,93.2012 126.725,94.0801 126.725,95.0566 C126.725,96.082 127.652,96.9609 128.629,96.9609 Z M2.2129,122.6934 L159.391,122.6934 C160.562,122.6934 161.539,121.86328 161.539,120.78906 C161.539,119.71484 160.562,118.88477 159.391,118.88477 L2.2129,118.88477 C1.041,118.88477 0.0645,119.71484 0.0645,120.78906 C0.0645,121.86328 1.041,122.6934 2.2129,122.6934 Z" id="Shape"></path>
                </g>
                <g id="Ultralight-L" transform="translate(0.909000, 834.000000)">
                    <path d="M80.8262,44.6914 C81.5098,44.6914 82.0957,44.1055 82.0957,43.4219 L82.0957,16.1758 L81.9004,4.408 L89.273,11.9277 L100.406,23.3047 C100.797,23.6465 101.09,23.793 101.432,23.793 C102.164,23.793 102.75,23.1582 102.75,22.3281 C102.75,21.7422 102.457,21.3516 101.969,20.8145 L81.8027,0.6 C81.5586,0.404 81.1191,0.16 80.8262,0.16 C80.4844,0.16 80.0449,0.404 79.8008,0.6 L59.6836,20.8145 C59.1465,21.3516 58.8535,21.7422 58.8535,22.3281 C58.8535,23.1582 59.4395,23.793 60.1719,23.793 C60.5137,23.793 60.8555,23.6465 61.1973,23.3047 L72.2812,11.9766 L79.752,4.408 L79.5566,16.1758 L79.5566,43.4219 C79.5566,44.1055 80.0938,44.6914 80.8262,44.6914 Z M46.793,63.1484 C47.0859,63.4414 47.916,63.4414 48.3555,63.002 C48.7461,62.6113 48.7461,61.7812 48.4531,61.4395 L31.0215,44.0078 C30.5332,43.6172 29.752,43.7148 29.4102,44.1055 C28.9219,44.5449 28.8242,45.2773 29.3125,45.668 L46.793,63.1484 Z M113.297,63.002 C113.736,63.4414 114.566,63.4414 114.859,63.1484 L132.34,45.668 C132.828,45.2773 132.73,44.5449 132.193,44.1055 C131.852,43.7148 131.119,43.6172 130.631,44.0078 L113.199,61.4395 C112.857,61.7812 112.906,62.6113 113.297,63.002 Z M112.906,95.4238 C112.906,77.8457 98.502,63.3438 80.8262,63.3438 C63.1504,63.3438 48.7461,77.8457 48.7461,95.4238 C48.7461,102.11328 50.7969,108.31445 54.3125,113.49023 L107.34,113.49023 C110.855,108.31445 112.906,102.11328 112.906,95.4238 Z M9.1465,95.082 L33.8535,95.082 C34.5371,95.082 34.8789,94.4961 34.8789,93.9102 C34.9277,93.2754 34.4395,92.7383 33.8535,92.7383 L9.1465,92.7383 C8.707,92.7383 8.1211,93.2754 8.1211,93.9102 C8.1211,94.4961 8.707,95.082 9.1465,95.082 Z M127.799,95.082 L152.457,95.082 C153.043,95.082 153.531,94.4961 153.531,93.9102 C153.531,93.2754 153.043,92.7383 152.457,92.7383 L127.799,92.7383 C127.311,92.7383 126.725,93.2754 126.725,93.9102 C126.725,94.4961 127.311,95.082 127.799,95.082 Z M1.4805,120.52148 L160.123,120.52148 C160.904,120.52148 161.539,120.0332 161.539,119.34961 C161.539,118.66602 160.904,118.17773 160.123,118.17773 L1.4805,118.17773 C0.6992,118.17773 0.0645,118.66602 0.0645,119.34961 C0.0645,120.0332 0.6992,120.52148 1.4805,120.52148 Z" id="Shape"></path>
                </g>
                <g id="Black-M" transform="translate(2392.380000, 416.000000)">
                    <path d="M63.0488,43.1895 C66.418,43.1895 69.1523,40.3086 69.1523,36.9395 L69.1035,24.4883 L67.834,15.1621 L70.7148,20.0938 L73.8398,24.0488 C75.1582,25.7578 76.6719,27.0762 79.0645,27.0762 C82.3848,27.0762 84.875,24.4395 84.875,21.3633 C84.875,19.2637 83.5566,17.457 81.9453,15.8945 L67.8828,2.418 C66.3203,0.9043 64.9043,0.2695 63.0488,0.2695 C61.1445,0.2695 59.7285,0.9043 58.166,2.418 L44.1035,15.8945 C42.4922,17.457 41.1738,19.2637 41.1738,21.3633 C41.1738,24.4395 43.6641,27.0762 46.9844,27.0762 C49.377,27.0762 50.8906,25.7578 52.209,24.0488 L55.334,20.0938 L58.2148,15.1621 L56.9453,24.4883 L56.8965,36.9395 C56.8965,40.3086 59.6309,43.1895 63.0488,43.1895 Z M28.918,54.1758 C31.2617,56.5684 35.2656,56.7148 37.6582,54.3223 C40.0508,51.9297 40.002,47.9258 37.6094,45.5332 L31.9941,39.9668 C29.5527,37.5254 25.5977,37.4766 23.2051,39.8691 C20.8125,42.2617 20.8125,46.2656 23.2539,48.707 L28.918,54.1758 Z M88.391,54.3223 C90.783,56.7148 94.787,56.5684 97.18,54.1758 L102.795,48.707 C105.236,46.2656 105.236,42.2617 102.844,39.8691 C100.5,37.4766 96.545,37.5254 94.104,39.9668 L88.488,45.5332 C86.0957,47.9258 86.0469,51.9297 88.391,54.3223 Z M89.709,79.5176 C89.709,64.5762 77.7949,52.7109 63.0488,52.7109 C48.2539,52.7109 36.3887,64.5762 36.3887,79.5176 C36.3887,80.6895 36.4375,81.9102 36.584,83.0332 L89.514,83.0332 C89.66,81.9102 89.709,80.6895 89.709,79.5176 Z M12.9512,80.7383 L20.8613,80.8359 C24.3281,80.8359 27.1113,78.0039 27.1602,74.5859 C27.1602,71.2168 24.3281,68.4824 20.8613,68.4824 L12.9512,68.4824 C9.582,68.4824 6.7012,71.2168 6.7012,74.5859 C6.7012,78.0039 9.6309,80.7383 12.9512,80.7383 Z M105.188,80.7383 L113.146,80.7383 C116.564,80.7383 119.396,78.0039 119.396,74.5859 C119.396,71.2168 116.564,68.4824 113.146,68.4824 L105.188,68.4824 C101.818,68.4824 98.938,71.2168 98.938,74.5859 C98.938,78.0039 101.916,80.7383 105.188,80.7383 Z M8.3125,108.17969 L117.736,108.17969 C122.131,108.17969 125.598,104.27344 125.598,100.02539 C125.598,95.5332 122.229,91.82227 117.736,91.82227 L8.3125,91.82227 C3.918,91.82227 0.4512,95.67969 0.4512,100.02539 C0.4512,104.17578 3.9668,108.17969 8.3125,108.17969 Z" id="Shape"></path>
                </g>
                <g id="Heavy-M" transform="translate(2095.660000, 416.000000)">
                    <path d="M63.0488,42.75 C66.125,42.75 68.6641,40.0645 68.6641,36.9395 L68.6152,23.1211 L67.4922,14.2344 L70.5195,18.9707 L74.377,23.4629 C75.5488,24.9277 76.916,26.0508 78.9668,26.0508 C81.9941,26.0508 84.2402,23.707 84.2402,20.9238 C84.2402,19.0684 83.1172,17.5059 81.7012,16.0898 L67.3457,2.4668 C65.9297,1.0996 64.6602,0.5625 63.0488,0.5625 C61.3887,0.5625 60.1191,1.0996 58.7031,2.4668 L44.3477,16.0898 C42.9316,17.5059 41.8086,19.0684 41.8086,20.9238 C41.8086,23.707 44.0547,26.0508 47.082,26.0508 C49.1328,26.0508 50.5,24.9277 51.6719,23.4629 L55.627,18.873 L58.5566,14.2344 L57.4336,23.1211 L57.3848,36.9395 C57.3848,40.0645 59.9238,42.75 63.0488,42.75 Z M88.391,54.3711 C90.539,56.5684 94.201,56.4707 96.447,54.2246 L102.746,48.0234 C105.041,45.7285 105.041,42.0664 102.844,39.8691 C100.695,37.7207 97.082,37.7695 94.787,40.0156 L88.488,46.3145 C86.2422,48.5117 86.1934,52.2227 88.391,54.3711 Z M29.6016,54.2246 C31.8477,56.4707 35.5586,56.5684 37.707,54.3711 C39.9043,52.2227 39.8555,48.5117 37.6094,46.3145 L31.3105,40.0156 C29.0156,37.7695 25.4023,37.7207 23.2051,39.8691 C21.0078,42.0664 21.0078,45.7285 23.3027,48.0234 L29.6016,54.2246 Z M89.66,79.5664 C89.66,64.7715 77.7461,52.8086 63.0488,52.8086 C48.3516,52.8086 36.4375,64.7715 36.4375,79.5664 C36.4375,81.3242 36.6328,83.0332 37.0723,84.6445 L88.977,84.6445 C89.465,83.0332 89.66,81.3242 89.66,79.5664 Z M12.5117,81.1777 L21.3984,81.2266 C24.6211,81.2266 27.209,78.6387 27.209,75.5625 C27.209,72.4375 24.6211,69.8984 21.3984,69.8984 L12.5117,69.8984 C9.3379,69.8984 6.7012,72.4375 6.7012,75.5625 C6.7012,78.6387 9.3867,81.1777 12.5117,81.1777 Z M104.699,81.1777 L113.586,81.1777 C116.809,81.1777 119.396,78.6387 119.396,75.5625 C119.396,72.4375 116.809,69.8984 113.586,69.8984 L104.699,69.8984 C101.525,69.8984 98.84,72.4375 98.889,75.5625 C98.889,78.6387 101.574,81.1777 104.699,81.1777 Z M7.4336,107.05664 L118.615,107.05664 C122.521,107.05664 125.598,103.63867 125.598,99.878906 C125.598,95.92383 122.57,92.70117 118.615,92.70117 L7.4336,92.70117 C3.5273,92.70117 0.4512,96.02148 0.4512,99.878906 C0.4512,103.54102 3.5762,107.05664 7.4336,107.05664 Z" id="Shape"></path>
                </g>
                <g id="Bold-M" transform="translate(1798.950000, 416.000000)">
                    <path d="M63.0488,42.2129 C65.7832,42.2129 68.0781,39.8203 68.0781,36.9395 L68.0293,21.5586 L67.1504,13.209 L70.373,17.75 L74.9629,22.8281 C75.9883,24 77.209,24.8789 78.8691,24.8789 C81.5547,24.8789 83.5078,22.877 83.5078,20.3867 C83.5078,18.8242 82.6289,17.5547 81.4082,16.3828 L66.7598,2.5156 C65.4902,1.2949 64.416,0.8555 63.0488,0.8555 C61.6328,0.8555 60.5586,1.2949 59.2891,2.5156 L44.6406,16.3828 C43.4199,17.5547 42.541,18.8242 42.541,20.3867 C42.541,22.877 44.4941,24.8789 47.1797,24.8789 C48.8398,24.8789 50.0605,24 51.0859,22.8281 L55.9199,17.5059 L58.8984,13.209 L58.0195,21.5586 L57.9707,36.9395 C57.9707,39.8203 60.2656,42.2129 63.0488,42.2129 Z M88.293,54.4688 C90.295,56.4219 93.566,56.373 95.666,54.2734 L102.746,47.291 C104.846,45.1426 104.797,41.9199 102.844,39.918 C100.939,37.9648 97.668,37.9648 95.568,40.1133 L88.488,47.1445 C86.3887,49.1953 86.3398,52.5156 88.293,54.4688 Z M30.4316,54.2734 C32.5312,56.373 35.8027,56.4707 37.7559,54.4688 C39.709,52.5156 39.6602,49.1953 37.6094,47.1445 L30.5293,40.1133 C28.4297,37.9648 25.1582,37.9648 23.2051,39.918 C21.252,41.8711 21.252,45.1426 23.3516,47.291 L30.4316,54.2734 Z M89.611,79.6152 C89.611,64.9668 77.6484,52.9551 63.0488,52.9551 C48.4492,52.9551 36.4863,64.9668 36.4863,79.6152 C36.4863,82.0078 36.877,84.3027 37.6582,86.4023 L88.439,86.4023 C89.221,84.3027 89.611,82.0078 89.611,79.6152 Z M12.0234,81.666 L21.9844,81.666 C24.9629,81.666 27.3066,79.3711 27.3066,76.5879 C27.2578,73.8047 24.9629,71.5586 21.9844,71.5586 L12.0234,71.5586 C9.0449,71.5586 6.7012,73.8047 6.7012,76.5879 C6.7012,79.3711 9.0938,81.666 12.0234,81.666 Z M104.113,81.666 L114.074,81.666 C117.053,81.666 119.396,79.3711 119.396,76.5879 C119.396,73.8047 117.053,71.5586 114.074,71.5586 L104.113,71.5586 C101.184,71.5586 98.742,73.8047 98.791,76.5879 C98.791,79.3711 101.184,81.666 104.113,81.666 Z M6.5059,105.73828 L119.543,105.73828 C122.912,105.73828 125.598,102.90625 125.598,99.683594 C125.598,96.36328 122.912,93.62891 119.543,93.62891 L6.5059,93.62891 C3.1367,93.62891 0.4512,96.46094 0.4512,99.683594 C0.4512,102.85742 3.1855,105.73828 6.5059,105.73828 Z" id="Shape"></path>
                </g>
                <g id="Semibold-M" transform="translate(1502.240000, 451.000000)">
                    <path d="M62.9512,9.0508 C65.4364814,9.0508 67.4512,7.03608137 67.4512,4.5508 C67.4512,2.06551863 65.4364814,0.0508 62.9512,0.0508 C60.4659186,0.0508 58.4512,2.06551863 58.4512,4.5508 C58.4512,7.03608137 60.4659186,9.0508 62.9512,9.0508 Z M34.9512,21.0508 C37.4364814,21.0508 39.4512,19.0360814 39.4512,16.5508 C39.4512,14.0655186 37.4364814,12.0508 34.9512,12.0508 C32.4659186,12.0508 30.4512,14.0655186 30.4512,16.5508 C30.4512,19.0360814 32.4659186,21.0508 34.9512,21.0508 Z M102.9512,47.0508 C105.436481,47.0508 107.4512,45.0360814 107.4512,42.5508 C107.4512,40.0655186 105.436481,38.0508 102.9512,38.0508 C100.465919,38.0508 98.4512,40.0655186 98.4512,42.5508 C98.4512,45.0360814 100.465919,47.0508 102.9512,47.0508 Z M91.9512,21.0508 C94.4364814,21.0508 96.4512,19.0360814 96.4512,16.5508 C96.4512,14.0655186 94.4364814,12.0508 91.9512,12.0508 C89.4659186,12.0508 87.4512,14.0655186 87.4512,16.5508 C87.4512,19.0360814 89.4659186,21.0508 91.9512,21.0508 Z M22.9512,47.0508 C25.4364814,47.0508 27.4512,45.0360814 27.4512,42.5508 C27.4512,40.0655186 25.4364814,38.0508 22.9512,38.0508 C20.4659186,38.0508 18.4512,40.0655186 18.4512,42.5508 C18.4512,45.0360814 20.4659186,47.0508 22.9512,47.0508 Z M89.562,44.6641 C89.562,30.0645 77.5996,18.0527 63.0488,18.0527 C48.498,18.0527 36.5352,30.0645 36.5352,44.6641 C36.5352,47.4473 37.0723,50.1816 38.0488,52.623 L88.049,52.623 C89.025,50.1816 89.562,47.4473 89.562,44.6641 Z M5.8711,69.85938 L120.178,69.85938 C123.156,69.85938 125.598,67.41797 125.598,64.585938 C125.598,61.70508 123.205,59.3125 120.178,59.3125 L5.8711,59.3125 C2.8926,59.3125 0.4512,61.70508 0.4512,64.585938 C0.4512,67.36914 2.8926,69.85938 5.8711,69.85938 Z" id="Shape"></path>
                </g>
                <g id="Medium-M" transform="translate(1205.530000, 417.000000)">
                    <path d="M63.0488,40.5781 C65.3926,40.5781 67.3945,38.4785 67.3945,35.8906 L67.3945,18.6543 L66.6621,10.9395 L70.1289,15.2363 L75.7441,20.998 C76.5254,21.877 77.5996,22.4629 78.7715,22.4629 C81.0176,22.4629 82.5801,20.9004 82.5801,18.752 C82.5801,17.5312 82.043,16.6035 81.0664,15.6758 L66.0762,1.6133 C64.9531,0.5879 64.123,0.1973 63.0488,0.1973 C61.9258,0.1973 61.0957,0.5879 59.9727,1.6133 L44.9824,15.6758 C44.0059,16.6035 43.4688,17.5312 43.4688,18.752 C43.4688,20.9004 45.0312,22.4629 47.2773,22.4629 C48.4492,22.4629 49.5234,21.877 50.3047,20.998 L56.3105,14.8457 L59.3867,10.9395 L58.6543,18.6543 L58.6543,35.8906 C58.6543,38.4785 60.6562,40.5781 63.0488,40.5781 Z M88.244,53.5664 C89.953,55.2266 92.785,55.2266 94.689,53.3223 L102.648,45.3633 C104.602,43.459 104.553,40.6758 102.844,38.9668 C101.232,37.2578 98.4,37.2578 96.496,39.1621 L88.488,47.1699 C86.584,49.0254 86.5352,51.9062 88.244,53.5664 Z M31.4082,53.3223 C33.3125,55.2266 36.1445,55.2754 37.8047,53.5664 C39.5137,51.8574 39.4648,49.0254 37.6094,47.1699 L29.6016,39.1621 C27.6973,37.2578 24.9141,37.3066 23.2051,38.9668 C21.4961,40.627 21.4961,43.459 23.4004,45.3633 L31.4082,53.3223 Z M89.514,78.7129 C89.514,64.1621 77.5508,52.1504 63.0488,52.1504 C48.5469,52.1504 36.5352,64.1621 36.5352,78.7129 C36.5352,81.8379 37.1699,84.8164 38.3418,87.5508 L87.7559,87.5508 C88.879,84.8164 89.514,81.8379 89.514,78.7129 Z M11.3887,81.2031 L22.668,81.2031 C25.3535,81.2031 27.4531,79.25 27.4043,76.8574 C27.3555,74.4648 25.3535,72.5117 22.668,72.5117 L11.3887,72.5117 C8.7031,72.5117 6.7012,74.4648 6.7012,76.8574 C6.7012,79.25 8.752,81.2031 11.3887,81.2031 Z M103.43,81.2031 L114.709,81.2031 C117.395,81.2031 119.396,79.25 119.396,76.8574 C119.396,74.4648 117.395,72.5117 114.709,72.5117 L103.43,72.5117 C100.744,72.5117 98.645,74.4648 98.693,76.8574 C98.742,79.25 100.744,81.2031 103.43,81.2031 Z M5.334,103.17578 L120.715,103.17578 C123.4,103.17578 125.598,101.02734 125.598,98.488281 C125.598,95.90039 123.4,93.80078 120.715,93.80078 L5.334,93.80078 C2.6484,93.80078 0.4512,95.94922 0.4512,98.488281 C0.4512,100.97852 2.6973,103.17578 5.334,103.17578 Z" id="Shape"></path>
                </g>
                <g id="Regular-M" transform="translate(908.820000, 453.000000)">
                    <path d="M35.4512,18.8492398 C37.660339,18.8492398 39.4512,17.0583788 39.4512,14.8492398 C39.4512,12.6401008 37.660339,10.8492398 35.4512,10.8492398 C33.242061,10.8492398 31.4512,12.6401008 31.4512,14.8492398 C31.4512,17.0583788 33.242061,18.8492398 35.4512,18.8492398 Z M63.4512,8.84923984 C65.660339,8.84923984 67.4512,7.05837884 67.4512,4.84923984 C67.4512,2.64010084 65.660339,0.849239843 63.4512,0.849239843 C61.242061,0.849239843 59.4512,2.64010084 59.4512,4.84923984 C59.4512,7.05837884 61.242061,8.84923984 63.4512,8.84923984 Z M23.4512,45.8492398 C25.660339,45.8492398 27.4512,44.0583788 27.4512,41.8492398 C27.4512,39.6401008 25.660339,37.8492398 23.4512,37.8492398 C21.242061,37.8492398 19.4512,39.6401008 19.4512,41.8492398 C19.4512,44.0583788 21.242061,45.8492398 23.4512,45.8492398 Z M91.4512,18.8492398 C93.660339,18.8492398 95.4512,17.0583788 95.4512,14.8492398 C95.4512,12.6401008 93.660339,10.8492398 91.4512,10.8492398 C89.242061,10.8492398 87.4512,12.6401008 87.4512,14.8492398 C87.4512,17.0583788 89.242061,18.8492398 91.4512,18.8492398 Z M102.4512,45.8492398 C104.660339,45.8492398 106.4512,44.0583788 106.4512,41.8492398 C106.4512,39.6401008 104.660339,37.8492398 102.4512,37.8492398 C100.242061,37.8492398 98.4512,39.6401008 98.4512,41.8492398 C98.4512,44.0583788 100.242061,45.8492398 102.4512,45.8492398 Z M89.514,42.7617 C89.514,28.3086 77.502,16.248 63.0488,16.248 C48.5957,16.248 36.584,28.3086 36.584,42.7617 C36.584,46.2773 37.3652,49.6953 38.6836,52.72266 L87.3652,52.72266 C88.732,49.6953 89.514,46.2773 89.514,42.7617 Z M4.6992,66.29688 L121.35,66.29688 C123.645,66.29688 125.598,64.53906 125.598,62.341797 C125.598,60.19336 123.645,58.43555 121.35,58.43555 L4.6992,58.43555 C2.4043,58.43555 0.4512,60.19336 0.4512,62.341797 C0.4512,64.53906 2.4043,66.29688 4.6992,66.29688 Z" id="Shape"></path>
                </g>
                <g id="Light-M" transform="translate(612.110000, 418.000000)">
                    <path d="M63.0488,38.748 C64.6602,38.748 66.0762,37.2832 66.0762,35.4766 L66.0762,16.2871 L65.6367,8.377 L69.8848,13.0645 L76.7695,20.0469 C77.3555,20.6328 78.0879,20.9258 78.8203,20.9258 C80.334,20.9258 81.457,19.8516 81.457,18.3379 C81.457,17.459 81.1152,16.873 80.4316,16.1895 L65.0996,1.541 C64.3184,0.8574 63.7324,0.5645 63.0488,0.5645 C62.3164,0.5645 61.7305,0.8574 60.9492,1.541 L45.6172,16.1895 C44.9336,16.873 44.5918,17.459 44.5918,18.3379 C44.5918,19.8516 45.7148,20.9258 47.2285,20.9258 C47.9609,20.9258 48.6934,20.6328 49.2793,20.0469 L56.5059,12.7227 L60.4121,8.377 L59.9727,16.2871 L59.9727,35.4766 C59.9727,37.2832 61.3887,38.748 63.0488,38.748 Z M88.244,52.4199 C89.416,53.543 91.369,53.543 92.688,52.2246 L102.746,42.166 C104.113,40.8477 104.064,38.9434 102.844,37.7715 C101.77,36.5996 99.816,36.5508 98.449,37.8691 L88.391,47.9277 C87.0723,49.2461 87.0234,51.248 88.244,52.4199 Z M33.4102,52.2246 C34.7285,53.543 36.7305,53.5918 37.8535,52.4199 C39.0254,51.248 39.0254,49.2461 37.707,47.9277 L27.6484,37.8691 C26.2812,36.5508 24.377,36.5996 23.2051,37.7715 C22.0332,38.8945 21.9844,40.8477 23.3516,42.166 L33.4102,52.2246 Z M89.025,77.5176 C89.025,63.3086 77.2578,51.541 63.0488,51.541 C48.8398,51.541 37.0723,63.3086 37.0723,77.5176 C37.0723,81.5703 38.0977,85.4277 39.8555,88.74805 L86.1934,88.74805 C88,85.4277 89.025,81.5703 89.025,77.5176 Z M9.9727,79.373 L24.1816,79.373 C26.0859,79.373 27.502,78.0059 27.4531,76.3457 C27.4043,74.6855 26.0371,73.3184 24.1816,73.3184 L9.9727,73.3184 C8.1172,73.3184 6.7012,74.6855 6.7012,76.3457 C6.7012,78.0059 8.1172,79.373 9.9727,79.373 Z M101.916,79.373 L116.125,79.373 C118.029,79.373 119.396,78.0059 119.396,76.3457 C119.396,74.6855 118.029,73.3184 116.125,73.3184 L101.916,73.3184 C100.061,73.3184 98.596,74.6855 98.645,76.3457 C98.645,78.0059 100.061,79.373 101.916,79.373 Z M3.7227,99.7832 L122.326,99.7832 C124.084,99.7832 125.598,98.46484 125.598,96.804688 C125.598,95.14453 124.084,93.82617 122.326,93.82617 L3.7227,93.82617 C1.9648,93.82617 0.4512,95.14453 0.4512,96.804688 C0.4512,98.46484 1.9648,99.7832 3.7227,99.7832 Z" id="Shape"></path>
                </g>
                <g id="Thin-M" transform="translate(315.398000, 420.000000)">
                    <path d="M63.0488,36.1133 C64.0254,36.1133 64.8555,35.2344 64.8555,34.209 L64.8555,13.8965 L64.5625,5.2539 L69.6895,10.5762 L77.6484,18.6816 C78.0391,19.0723 78.4785,19.2676 78.918,19.2676 C79.8945,19.2676 80.627,18.5352 80.627,17.5586 C80.627,16.9238 80.334,16.4844 79.8457,15.9473 L64.3184,0.7129 C63.9277,0.3223 63.4395,0.127 63.0488,0.127 C62.6094,0.127 62.1211,0.3223 61.7305,0.7129 L46.2031,15.9473 C45.7148,16.4844 45.4219,16.9238 45.4219,17.5586 C45.4219,18.5352 46.1543,19.2676 47.1309,19.2676 C47.5703,19.2676 48.0098,19.0723 48.4004,18.6816 L56.457,10.4785 L61.4863,5.2539 L61.1934,13.8965 L61.1934,34.209 C61.1934,35.2344 62.0234,36.1133 63.0488,36.1133 Z M88.244,50.0781 C88.879,50.7617 90.1,50.7617 90.734,50.0781 L102.844,37.9688 C103.625,37.2363 103.576,36.1133 102.844,35.4297 C102.258,34.7949 101.135,34.7461 100.354,35.4297 L88.244,47.5879 C87.5605,48.2227 87.5605,49.4434 88.244,50.0781 Z M35.3145,50.0781 C35.998,50.7617 37.2188,50.7617 37.8535,50.0781 C38.5371,49.4434 38.5371,48.2227 37.8535,47.5879 L25.7441,35.4297 C24.9629,34.7461 23.8398,34.7949 23.2051,35.4297 C22.4727,36.1133 22.4238,37.2363 23.2051,37.9688 L35.3145,50.0781 Z M88.342,75.2246 C88.342,61.3574 76.9648,49.8828 63.0488,49.8828 C49.1328,49.8828 37.7559,61.3574 37.7559,75.2246 C37.7559,79.9609 39.0742,84.3555 41.418,88.11523 L84.6309,88.11523 C87.0234,84.3555 88.342,79.9609 88.342,75.2246 Z M8.5078,75.8105 L25.6465,75.8105 C26.7207,75.8105 27.4531,74.9805 27.4531,74.0527 C27.4531,73.0762 26.6719,72.2461 25.6465,72.2461 L8.5078,72.2461 C7.5312,72.2461 6.7012,73.0762 6.7012,74.0527 C6.7012,74.9805 7.5312,75.8105 8.5078,75.8105 Z M100.451,75.8105 L117.59,75.8105 C118.615,75.8105 119.396,74.9805 119.396,74.0527 C119.396,73.0762 118.615,72.2461 117.59,72.2461 L100.451,72.2461 C99.475,72.2461 98.596,73.0762 98.645,74.0527 C98.645,74.9805 99.475,75.8105 100.451,75.8105 Z M2.4531,95.830078 L123.596,95.830078 C124.719,95.830078 125.598,95.0488281 125.598,94.072266 C125.598,93.04688 124.719,92.31445 123.596,92.31445 L2.4531,92.31445 C1.3301,92.31445 0.4512,93.04688 0.4512,94.072266 C0.4512,95.0488281 1.3301,95.830078 2.4531,95.830078 Z" id="Shape"></path>
                </g>
                <g id="Ultralight-M" transform="translate(18.687000, 420.000000)">
                    <path d="M63.0488,35.7715 C63.6836,35.7715 64.2207,35.2344 64.2207,34.5996 L64.2207,13.6523 L64.0254,4.668 L69.6406,10.3809 L78.0879,19.0234 C78.3809,19.3164 78.6738,19.4141 78.9668,19.4141 C79.6504,19.4141 80.1875,18.877 80.1875,18.1445 C80.1875,17.6562 79.9434,17.3145 79.5039,16.875 L63.9277,1.3477 C63.6836,1.1035 63.3418,0.9082 63.0488,0.9082 C62.707,0.9082 62.3652,1.1035 62.1211,1.3477 L46.5449,16.875 C46.1055,17.3145 45.8613,17.6562 45.8613,18.1445 C45.8613,18.877 46.3984,19.4141 47.082,19.4141 C47.375,19.4141 47.668,19.3164 47.9609,19.0234 L56.4082,10.3809 L62.0234,4.668 L61.8281,13.6523 L61.8281,34.5996 C61.8281,35.2344 62.3652,35.7715 63.0488,35.7715 Z M36.3398,50.0293 C36.6816,50.3711 37.4629,50.3711 37.8535,49.9316 C38.293,49.541 38.293,48.7598 37.9512,48.418 L24.7676,35.2344 C24.2793,34.7949 23.5469,34.8926 23.2051,35.2832 C22.7168,35.7227 22.668,36.4062 23.1562,36.8457 L36.3398,50.0293 Z M88.244,49.9316 C88.635,50.3711 89.416,50.3711 89.758,50.0293 L102.941,36.8457 C103.43,36.4062 103.332,35.7227 102.844,35.2832 C102.502,34.8926 101.818,34.7949 101.33,35.2344 L88.146,48.418 C87.8047,48.7598 87.8047,49.541 88.244,49.9316 Z M88,75.0781 C88,61.3574 76.8184,50.0781 63.0488,50.0781 C49.2793,50.0781 38.0977,61.3574 38.0977,75.0781 C38.0977,80.1562 39.6113,84.8438 42.248,88.79883 L83.8496,88.79883 C86.4863,84.8438 88,80.1562 88,75.0781 Z M7.7754,75.0293 L26.3789,75.0293 C27.0625,75.0293 27.4531,74.4922 27.4531,73.8574 C27.4531,73.2715 26.9648,72.7344 26.3789,72.7344 L7.7754,72.7344 C7.2383,72.7344 6.7012,73.2715 6.7012,73.8574 C6.7012,74.4922 7.2383,75.0293 7.7754,75.0293 Z M99.67,75.0293 L118.322,75.0293 C118.908,75.0293 119.396,74.4922 119.396,73.8574 C119.396,73.2715 118.908,72.7344 118.322,72.7344 L99.67,72.7344 C99.182,72.7344 98.645,73.2715 98.645,73.8574 C98.645,74.4922 99.182,75.0293 99.67,75.0293 Z M1.7695,94.804688 L124.279,94.804688 C125.012,94.804688 125.598,94.316406 125.598,93.68164 C125.598,92.99805 125.012,92.55859 124.279,92.55859 L1.7695,92.55859 C1.0371,92.55859 0.4512,92.99805 0.4512,93.68164 C0.4512,94.316406 1.0371,94.804688 1.7695,94.804688 Z" id="Shape"></path>
                </g>
                <g id="Black-S" transform="translate(2405.610000, 0.000000)">
                    <path d="M49.7891,33.6328 C52.4258,33.6328 54.5742,31.3867 54.5742,28.75 L54.5254,18.8867 L53.5488,11.6113 L55.7949,15.4688 L58.2852,18.5938 C59.3105,19.9121 60.4824,20.9375 62.3379,20.9375 C64.9258,20.9375 66.8789,18.8867 66.8789,16.4941 C66.8789,14.8828 65.8535,13.4668 64.584,12.2461 L53.5488,1.6992 C52.3281,0.5273 51.2539,0.0391 49.7891,0.0391 C48.3242,0.0391 47.25,0.5273 46.0293,1.6992 L34.9941,12.2461 C33.7246,13.4668 32.6992,14.8828 32.6992,16.4941 C32.6992,18.8867 34.6523,20.9375 37.2402,20.9375 C39.0957,20.9375 40.2676,19.9121 41.293,18.5938 L43.7832,15.4688 L46.0293,11.6113 L45.0527,18.8867 L45.0039,28.75 C45.0039,31.3867 47.1523,33.6328 49.7891,33.6328 Z M23.0801,42.2754 C24.9355,44.1309 28.0605,44.2285 29.916,42.373 C31.7715,40.5176 31.7227,37.3926 29.8672,35.5371 L25.4238,31.1426 C23.5195,29.2383 20.4434,29.1895 18.5879,31.0449 C16.7324,32.9004 16.7324,36.0254 18.6367,37.9297 L23.0801,42.2754 Z M69.6621,42.373 C71.5176,44.2285 74.6426,44.1309 76.498,42.2754 L80.9414,37.9297 C82.8457,36.0254 82.8457,32.9004 80.9902,31.0449 C79.1348,29.1895 76.0586,29.2383 74.1543,31.1426 L69.7109,35.5371 C67.8555,37.3926 67.8066,40.5176 69.6621,42.373 Z M70.6875,62.0996 C70.6875,50.4297 61.3613,41.1035 49.7891,41.1035 C38.2168,41.1035 28.8906,50.4297 28.8906,62.0996 C28.8906,63.0762 28.9395,64.0527 29.0859,64.9805 L70.4922,64.9805 C70.6387,64.0527 70.6875,63.0762 70.6875,62.0996 Z M10.5312,63.125 L16.7812,63.1738 C19.4668,63.1738 21.6641,60.9766 21.6641,58.3398 C21.6641,55.7031 19.4668,53.5547 16.7812,53.5547 L10.5312,53.5547 C7.8945,53.5547 5.6484,55.7031 5.6484,58.3398 C5.6484,60.9766 7.9434,63.125 10.5312,63.125 Z M82.7969,63.125 L89.0469,63.125 C91.732,63.125 93.93,60.9766 93.93,58.3398 C93.93,55.7031 91.732,53.5547 89.0469,53.5547 L82.7969,53.5547 C80.1602,53.5547 77.9141,55.7031 77.9141,58.3398 C77.9141,60.9766 80.209,63.125 82.7969,63.125 Z M6.8691,84.511719 L92.709,84.511719 C96.127,84.511719 98.812,81.48438 98.812,78.16406 C98.812,74.6973 96.176,71.8164 92.709,71.8164 L6.8691,71.8164 C3.4512,71.8164 0.76562,74.7949 0.76562,78.16406 C0.76562,81.38672 3.5,84.511719 6.8691,84.511719 Z" id="Shape"></path>
                </g>
                <g id="Heavy-S" transform="translate(2108.900000, 0.000000)">
                    <path d="M49.7891,33.3398 C52.2793,33.3398 54.2812,31.1914 54.2812,28.7012 L54.2324,17.8613 L53.4023,11.0254 L55.6973,14.6387 L58.627,18.1055 C59.5547,19.2285 60.6777,20.1074 62.2891,20.1074 C64.6816,20.1074 66.4395,18.252 66.4395,16.0547 C66.4395,14.5898 65.6094,13.3691 64.4375,12.2949 L53.207,1.6504 C52.084,0.5273 51.1074,0.0879 49.7891,0.0879 C48.4707,0.0879 47.4941,0.5273 46.3711,1.6504 L35.1406,12.2949 C33.9688,13.3691 33.1387,14.5898 33.1387,16.0547 C33.1387,18.252 34.8965,20.1074 37.2891,20.1074 C38.9004,20.1074 40.0234,19.2285 40.9512,18.1055 L43.9785,14.541 L46.1758,11.0254 L45.3457,17.8613 L45.2969,28.7012 C45.2969,31.1914 47.2988,33.3398 49.7891,33.3398 Z M69.6133,42.4707 C71.3711,44.1797 74.3008,44.1309 76.1074,42.3242 L80.8926,37.5879 C82.748,35.7812 82.748,32.8516 80.9902,31.0938 C79.2324,29.3359 76.3516,29.3848 74.4961,31.2402 L69.7109,35.9766 C67.9043,37.7832 67.8555,40.7129 69.6133,42.4707 Z M23.4707,42.3242 C25.2773,44.1309 28.207,44.2285 29.9648,42.4707 C31.6738,40.7129 31.6738,37.7832 29.8672,35.9766 L25.082,31.2402 C23.2266,29.3848 20.3457,29.3359 18.5879,31.0938 C16.8301,32.8516 16.8301,35.7812 18.6855,37.5879 L23.4707,42.3242 Z M70.6875,62.1484 C70.6875,50.5762 61.3125,41.1523 49.7891,41.1523 C38.2656,41.1523 28.8906,50.5762 28.8906,62.1484 C28.8906,63.5156 29.0371,64.834 29.3301,66.0547 L70.248,66.0547 C70.541,64.834 70.6875,63.5156 70.6875,62.1484 Z M10.2871,63.5645 L17.0742,63.6133 C19.6621,63.6133 21.7129,61.5625 21.7129,59.0723 C21.7129,56.582 19.6621,54.5801 17.0742,54.5801 L10.2871,54.5801 C7.748,54.5801 5.6484,56.582 5.6484,59.0723 C5.6484,61.5625 7.7969,63.5645 10.2871,63.5645 Z M82.5039,63.5645 L89.291,63.5645 C91.879,63.5645 93.93,61.5625 93.93,59.0723 C93.93,56.582 91.879,54.5801 89.291,54.5801 L82.5039,54.5801 C79.9648,54.5801 77.8652,56.582 77.8652,59.0723 C77.8652,61.5625 80.0137,63.5645 82.5039,63.5645 Z M6.332,83.7793 L93.246,83.7793 C96.371,83.7793 98.812,81.09375 98.812,78.11523 C98.812,74.9902 96.371,72.4512 93.246,72.4512 L6.332,72.4512 C3.207,72.4512 0.76562,75.08789 0.76562,78.11523 C0.76562,81.04492 3.2559,83.7793 6.332,83.7793 Z" id="Shape"></path>
                </g>
                <g id="Bold-S" transform="translate(1812.190000, 0.000000)">
                    <path d="M49.7891,32.998 C52.084,32.998 53.9883,30.9961 53.9883,28.6035 L53.9395,16.6895 L53.207,10.3418 L55.5508,13.7598 L59.0176,17.5195 C59.8477,18.4961 60.8242,19.1797 62.1914,19.1797 C64.3398,19.1797 65.9512,17.5684 65.9512,15.5176 C65.9512,14.2969 65.3164,13.2227 64.291,12.2949 L52.8652,1.5527 C51.791,0.5762 50.9121,0.1855 49.7891,0.1855 C48.666,0.1855 47.8359,0.5762 46.7129,1.5527 L35.2871,12.2949 C34.2617,13.2227 33.627,14.2969 33.627,15.5176 C33.627,17.5684 35.2383,19.1797 37.3867,19.1797 C38.7539,19.1797 39.7305,18.4961 40.5605,17.5195 L44.2227,13.5156 L46.3711,10.3418 L45.6387,16.6895 L45.5898,28.6035 C45.5898,30.9961 47.4941,32.998 49.7891,32.998 Z M69.6133,42.5684 C71.2246,44.1797 73.9102,44.1309 75.668,42.373 L80.8438,37.2461 C82.6016,35.4883 82.6016,32.8027 80.9902,31.1426 C79.3789,29.5312 76.6934,29.5312 74.9355,31.2891 L69.7598,36.4648 C68.002,38.2227 67.9531,40.957 69.6133,42.5684 Z M23.9102,42.373 C25.668,44.1309 28.4023,44.1797 30.0137,42.5684 C31.5762,40.9082 31.5762,38.2227 29.8184,36.4648 L24.6426,31.2891 C22.8848,29.5312 20.1992,29.5312 18.5879,31.1426 C16.9766,32.7539 16.9766,35.4883 18.7344,37.2461 L23.9102,42.373 Z M70.7363,62.2461 C70.7363,50.7227 61.3125,41.25 49.7891,41.25 C38.2656,41.25 28.8418,50.7227 28.8418,62.2461 C28.8418,64.0039 29.1348,65.7129 29.623,67.3242 L69.9551,67.3242 C70.4434,65.7129 70.7363,64.0039 70.7363,62.2461 Z M10.043,64.1016 L17.3672,64.1016 C19.8574,64.1016 21.8105,62.1973 21.8105,59.9023 C21.7617,57.6074 19.8574,55.752 17.3672,55.752 L10.043,55.752 C7.6016,55.752 5.6484,57.6074 5.6484,59.9023 C5.6484,62.1973 7.6016,64.1016 10.043,64.1016 Z M82.2109,64.1016 L89.5352,64.1016 C92.025,64.1016 93.93,62.1973 93.93,59.9023 C93.93,57.6074 92.025,55.752 89.5352,55.752 L82.2109,55.752 C79.7695,55.752 77.7676,57.6074 77.8164,59.9023 C77.8164,62.1973 79.7695,64.1016 82.2109,64.1016 Z M5.6973,82.99805 L93.881,82.99805 C96.615,82.99805 98.812,80.6543 98.812,78.06641 C98.812,75.33203 96.615,73.1348 93.881,73.1348 L5.6973,73.1348 C2.9629,73.1348 0.76562,75.38086 0.76562,78.06641 C0.76562,80.60547 3.0117,82.99805 5.6973,82.99805 Z" id="Shape"></path>
                </g>
                <g id="Semibold-S" transform="translate(1515.480000, 27.000000)">
                    <path d="M18.26562,37.2344 C20.1986166,37.2344 21.76562,35.6673966 21.76562,33.7344 C21.76562,31.8014034 20.1986166,30.2344 18.26562,30.2344 C16.3326234,30.2344 14.76562,31.8014034 14.76562,33.7344 C14.76562,35.6673966 16.3326234,37.2344 18.26562,37.2344 Z M81.26562,37.2344 C83.1986166,37.2344 84.76562,35.6673966 84.76562,33.7344 C84.76562,31.8014034 83.1986166,30.2344 81.26562,30.2344 C79.3326234,30.2344 77.76562,31.8014034 77.76562,33.7344 C77.76562,35.6673966 79.3326234,37.2344 81.26562,37.2344 Z M72.26562,16.2344 C74.1986166,16.2344 75.76562,14.6673966 75.76562,12.7344 C75.76562,10.8014034 74.1986166,9.2344 72.26562,9.2344 C70.3326234,9.2344 68.76562,10.8014034 68.76562,12.7344 C68.76562,14.6673966 70.3326234,16.2344 72.26562,16.2344 Z M49.26562,7.2344 C51.1986166,7.2344 52.76562,5.66739662 52.76562,3.7344 C52.76562,1.80140338 51.1986166,0.2344 49.26562,0.2344 C47.3326234,0.2344 45.76562,1.80140338 45.76562,3.7344 C45.76562,5.66739662 47.3326234,7.2344 49.26562,7.2344 Z M27.26562,16.2344 C29.1986166,16.2344 30.76562,14.6673966 30.76562,12.7344 C30.76562,10.8014034 29.1986166,9.2344 27.26562,9.2344 C25.3326234,9.2344 23.76562,10.8014034 23.76562,12.7344 C23.76562,14.6673966 25.3326234,16.2344 27.26562,16.2344 Z M70.7363,35.2949 C70.7363,23.8203 61.2637,14.2988 49.7891,14.2988 C38.3145,14.2988 28.8418,23.8203 28.8418,35.2949 C28.8418,37.3457 29.1836,39.3477 29.8184,41.1543 L69.7598,41.1543 C70.3945,39.3477 70.7363,37.3457 70.7363,35.2949 Z M5.3066,55.41211 L94.271,55.41211 C96.762,55.41211 98.812,53.36133 98.812,51.01758 C98.812,48.57617 96.811,46.5742 94.271,46.5742 L5.3066,46.5742 C2.8164,46.5742 0.76562,48.625 0.76562,51.01758 C0.76562,53.36133 2.8164,55.41211 5.3066,55.41211 Z" id="Shape"></path>
                </g>
                <g id="Medium-S" transform="translate(1218.770000, 0.000000)">
                    <path d="M49.7891,32.5586 C51.8398,32.5586 53.5977,30.752 53.5977,28.5059 L53.5488,15.3223 L52.9629,9.5117 L55.4043,12.6855 L59.5059,16.8359 C60.1895,17.6172 61.0684,18.1055 62.0938,18.1055 C63.998,18.1055 65.3652,16.7383 65.3652,14.9316 C65.3652,13.9062 64.9258,13.125 64.1445,12.3438 L52.377,1.5039 C51.4004,0.5762 50.7168,0.2832 49.7891,0.2832 C48.8613,0.2832 48.1777,0.5762 47.2012,1.5039 L35.4336,12.3438 C34.6523,13.125 34.2129,13.9062 34.2129,14.9316 C34.2129,16.7383 35.5801,18.1055 37.4844,18.1055 C38.5098,18.1055 39.3887,17.6172 40.0723,16.8359 L44.5156,12.2949 L46.6152,9.5117 L46.0293,15.3223 L45.9805,28.5059 C45.9805,30.752 47.7383,32.5586 49.7891,32.5586 Z M69.5645,42.666 C71.0293,44.1309 73.4707,44.082 75.1309,42.4219 L80.7949,36.8066 C82.5039,35.0977 82.4551,32.7051 80.9902,31.1914 C79.5254,29.7266 77.084,29.7266 75.4238,31.4355 L69.7598,37.0508 C68.0996,38.7109 68.0508,41.2012 69.5645,42.666 Z M24.4473,42.4219 C26.1074,44.082 28.5977,44.1309 30.0137,42.666 C31.4785,41.2012 31.4785,38.7109 29.8184,37.0508 L24.1543,31.4355 C22.4941,29.7266 20.0527,29.7754 18.5879,31.1914 C17.123,32.6562 17.0742,35.0977 18.7832,36.8066 L24.4473,42.4219 Z M70.7363,62.3438 C70.7363,50.8691 61.2637,41.3477 49.7891,41.3477 C38.3145,41.3477 28.8418,50.8691 28.8418,62.3438 C28.8418,64.5898 29.2324,66.7871 29.9648,68.7891 L69.6133,68.7891 C70.3457,66.7871 70.7363,64.5898 70.7363,62.3438 Z M9.75,64.6875 L17.709,64.6875 C20.1016,64.6875 21.9082,62.9785 21.8594,60.9277 C21.8105,58.8281 20.1016,57.1191 17.709,57.1191 L9.75,57.1191 C7.4062,57.1191 5.6484,58.8281 5.6484,60.9277 C5.6484,62.9785 7.4062,64.6875 9.75,64.6875 Z M81.8691,64.6875 L89.8281,64.6875 C92.172,64.6875 93.93,62.9785 93.93,60.9277 C93.93,58.8281 92.172,57.1191 89.8281,57.1191 L81.8691,57.1191 C79.5254,57.1191 77.6699,58.8281 77.7188,60.9277 C77.7676,62.9785 79.5254,64.6875 81.8691,64.6875 Z M4.9648,82.02148 L94.613,82.02148 C96.908,82.02148 98.812,80.16602 98.812,77.96875 C98.812,75.77148 96.908,73.9648 94.613,73.9648 L4.9648,73.9648 C2.6699,73.9648 0.76562,75.77148 0.76562,77.96875 C0.76562,80.11719 2.6699,82.02148 4.9648,82.02148 Z" id="Shape"></path>
                </g>
                <g id="Regular-S" transform="translate(922.060000, 25.000000)">
                    <path d="M50.26562,7.332 C52.1986166,7.332 53.76562,5.76499662 53.76562,3.832 C53.76562,1.89900338 52.1986166,0.332 50.26562,0.332 C48.3326234,0.332 46.76562,1.89900338 46.76562,3.832 C46.76562,5.76499662 48.3326234,7.332 50.26562,7.332 Z M72.26562,18.332 C74.1986166,18.332 75.76562,16.7649966 75.76562,14.832 C75.76562,12.8990034 74.1986166,11.332 72.26562,11.332 C70.3326234,11.332 68.76562,12.8990034 68.76562,14.832 C68.76562,16.7649966 70.3326234,18.332 72.26562,18.332 Z M81.26562,39.332 C83.1986166,39.332 84.76562,37.7649966 84.76562,35.832 C84.76562,33.8990034 83.1986166,32.332 81.26562,32.332 C79.3326234,32.332 77.76562,33.8990034 77.76562,35.832 C77.76562,37.7649966 79.3326234,39.332 81.26562,39.332 Z M18.26562,39.332 C20.1986166,39.332 21.76562,37.7649966 21.76562,35.832 C21.76562,33.8990034 20.1986166,32.332 18.26562,32.332 C16.3326234,32.332 14.76562,33.8990034 14.76562,35.832 C14.76562,37.7649966 16.3326234,39.332 18.26562,39.332 Z M27.26562,18.332 C29.1986166,18.332 30.76562,16.7649966 30.76562,14.832 C30.76562,12.8990034 29.1986166,11.332 27.26562,11.332 C25.3326234,11.332 23.76562,12.8990034 23.76562,14.832 C23.76562,16.7649966 25.3326234,18.332 27.26562,18.332 Z M70.7363,37.3926 C70.7363,25.9668 61.2148,16.3965 49.7891,16.3965 C38.3633,16.3965 28.8418,25.9668 28.8418,37.3926 C28.8418,39.9316 29.2812,42.373 30.1602,44.6191 L69.418,44.6191 C70.2969,42.373 70.7363,39.9316 70.7363,37.3926 Z M4.5742,56.43555 L95.004,56.43555 C97.055,56.43555 98.812,54.87305 98.812,52.91992 C98.812,51.01562 97.055,49.4043 95.004,49.4043 L4.5742,49.4043 C2.5234,49.4043 0.76562,51.01562 0.76562,52.91992 C0.76562,54.87305 2.5234,56.43555 4.5742,56.43555 Z" id="Shape"></path>
                </g>
                <g id="Light-S" transform="translate(625.340000, 1.000000)">
                    <path d="M49.7891,30.9238 C51.2539,30.9238 52.5234,29.6055 52.5234,27.9453 L52.5234,13.248 L52.1328,7.291 L55.209,10.7578 L60.3359,15.8848 C60.8242,16.373 61.459,16.666 62.1426,16.666 C63.5098,16.666 64.4863,15.7383 64.4863,14.3711 C64.4863,13.6387 64.1934,13.1016 63.6074,12.5645 L51.6445,1.2363 C50.9121,0.6016 50.4238,0.3574 49.7891,0.3574 C49.1543,0.3574 48.666,0.6016 47.9336,1.2363 L35.9707,12.5645 C35.3848,13.1016 35.0918,13.6387 35.0918,14.3711 C35.0918,15.7383 36.0684,16.666 37.4355,16.666 C38.1191,16.666 38.7539,16.373 39.2422,15.8848 L44.6621,10.416 L47.4453,7.291 L47.0547,13.248 L47.0547,27.9453 C47.0547,29.6055 48.3242,30.9238 49.7891,30.9238 Z M69.5156,41.5195 C70.5898,42.5449 72.3477,42.5449 73.5684,41.373 L80.8438,34.0488 C82.1133,32.8281 82.0645,31.1191 80.9902,30.0449 C79.9648,28.9707 78.207,28.9707 76.9863,30.1914 L69.7109,37.4668 C68.4902,38.6875 68.4414,40.4941 69.5156,41.5195 Z M26.0098,41.373 C27.2305,42.5449 29.0371,42.5938 30.0625,41.5195 C31.0879,40.4453 31.0879,38.6875 29.8672,37.4668 L22.5918,30.1914 C21.3711,28.9707 19.6621,29.0195 18.5879,30.0449 C17.5137,31.0703 17.4648,32.8281 18.7344,34.0488 L26.0098,41.373 Z M70.2969,61.1973 C70.2969,49.9668 61.0195,40.6406 49.7891,40.6406 C38.5586,40.6406 29.2812,49.9668 29.2812,61.1973 C29.2812,64.1758 29.9648,67.0078 31.1855,69.5469 L68.3926,69.5469 C69.6133,67.0078 70.2969,64.1758 70.2969,61.1973 Z M8.627,63.0039 L18.9297,63.0039 C20.6387,63.0039 21.957,61.7832 21.9082,60.2695 C21.8594,58.7559 20.6387,57.5352 18.9297,57.5352 L8.627,57.5352 C6.918,57.5352 5.6484,58.7559 5.6484,60.2695 C5.6484,61.7832 6.918,63.0039 8.627,63.0039 Z M80.6484,63.0039 L90.9512,63.0039 C92.709,63.0039 93.93,61.7832 93.93,60.2695 C93.93,58.7559 92.709,57.5352 90.9512,57.5352 L80.6484,57.5352 C78.9395,57.5352 77.6211,58.7559 77.6699,60.2695 C77.7188,61.7832 78.9395,63.0039 80.6484,63.0039 Z M3.6953,79.11719 L95.883,79.11719 C97.494,79.11719 98.812,77.89648 98.812,76.43164 C98.812,74.9668 97.494,73.7461 95.883,73.7461 L3.6953,73.7461 C2.084,73.7461 0.76562,74.9668 0.76562,76.43164 C0.76562,77.89648 2.084,79.11719 3.6953,79.11719 Z" id="Shape"></path>
                </g>
                <g id="Thin-S" transform="translate(328.633000, 2.000000)">
                    <path d="M49.7891,29.3379 C50.7168,29.3379 51.4492,28.5566 51.4492,27.5801 L51.4492,11.9062 L51.2051,5.2656 L55.0625,9.3184 L61.0684,15.4707 C61.4102,15.8125 61.8008,15.959 62.2402,15.959 C63.0703,15.959 63.7539,15.3242 63.7539,14.4453 C63.7539,13.9082 63.5098,13.5176 63.0703,13.127 L50.9609,1.2617 C50.5703,0.9199 50.1797,0.7246 49.7891,0.7246 C49.3984,0.7246 49.0078,0.9199 48.6172,1.2617 L36.5078,13.127 C36.0684,13.5176 35.8242,13.9082 35.8242,14.4453 C35.8242,15.3242 36.5078,15.959 37.3379,15.959 C37.7773,15.959 38.168,15.8125 38.5098,15.4707 L44.6621,9.2207 L48.373,5.2656 L48.1289,11.9062 L48.1289,27.5801 C48.1289,28.5566 48.8613,29.3379 49.7891,29.3379 Z M69.5156,40.2754 C70.1504,40.8613 71.2246,40.8613 71.8594,40.2266 L80.9414,31.0957 C81.6738,30.4121 81.625,29.3867 80.9902,28.8008 C80.4043,28.166 79.3789,28.1172 78.6465,28.8008 L69.5645,37.8828 C68.8809,38.5664 68.8809,39.6406 69.5156,40.2754 Z M27.7188,40.2266 C28.3535,40.8613 29.4277,40.8613 30.0625,40.2754 C30.6973,39.6406 30.6973,38.5664 30.0137,37.8828 L20.9316,28.8008 C20.1992,28.1172 19.1738,28.166 18.5879,28.8008 C17.9043,29.3867 17.9043,30.4121 18.6367,31.0957 L27.7188,40.2266 Z M69.7598,59.9531 C69.7598,49.0156 60.7754,39.9824 49.7891,39.9824 C38.8027,39.9824 29.8184,49.0156 29.8184,59.9531 C29.8184,63.5176 30.8438,66.8379 32.5527,69.7188 L67.0254,69.7188 C68.7344,66.8379 69.7598,63.5176 69.7598,59.9531 Z M7.3574,60.6367 L20.1992,60.6367 C21.2246,60.6367 21.9082,59.9043 21.9082,59.0254 C21.9082,58.0977 21.1758,57.3652 20.1992,57.3652 L7.3574,57.3652 C6.4297,57.3652 5.6484,58.0977 5.6484,59.0254 C5.6484,59.9043 6.4297,60.6367 7.3574,60.6367 Z M79.3789,60.6367 L92.221,60.6367 C93.197,60.6367 93.93,59.9043 93.93,59.0254 C93.93,58.0977 93.197,57.3652 92.221,57.3652 L79.3789,57.3652 C78.4512,57.3652 77.6699,58.0977 77.6699,59.0254 C77.6699,59.9043 78.4512,60.6367 79.3789,60.6367 Z M2.5723,76.4082 L97.006,76.4082 C97.982,76.4082 98.812,75.67578 98.812,74.79688 C98.812,73.86914 97.982,73.13672 97.006,73.13672 L2.5723,73.13672 C1.5957,73.13672 0.76562,73.86914 0.76562,74.79688 C0.76562,75.67578 1.5957,76.4082 2.5723,76.4082 Z" id="Shape"></path>
                </g>
                <g id="Ultralight-S" transform="translate(31.922000, 3.000000)">
                    <path d="M49.7891,28.0449 C50.375,28.0449 50.9121,27.5566 50.9121,26.9219 L50.9121,10.7109 L50.7168,3.7285 L54.9648,8.123 L61.459,14.7637 C61.752,15.0078 61.9961,15.1055 62.2891,15.1055 C62.875,15.1055 63.3633,14.666 63.3633,13.9824 C63.3633,13.5918 63.168,13.2988 62.7773,12.9082 L50.6191,0.7988 C50.375,0.6035 50.082,0.457 49.7891,0.457 C49.4961,0.457 49.2031,0.6035 48.959,0.7988 L36.8008,12.9082 C36.4102,13.2988 36.2148,13.5918 36.2148,13.9824 C36.2148,14.666 36.7031,15.1055 37.2891,15.1055 C37.582,15.1055 37.8262,15.0078 38.1191,14.7637 L44.6133,8.123 L48.8613,3.7285 L48.666,10.7109 L48.666,26.9219 C48.666,27.5566 49.2031,28.0449 49.7891,28.0449 Z M28.5977,39.1289 C28.9395,39.5195 29.6719,39.5195 30.0625,39.1289 C30.4531,38.7383 30.4531,38.0059 30.1113,37.6641 L20.0527,27.6055 C19.6133,27.2148 18.9297,27.2637 18.5879,27.6543 C18.1484,28.0449 18.0996,28.6797 18.5391,29.1191 L28.5977,39.1289 Z M69.5156,39.1289 C69.9062,39.5195 70.6387,39.5195 70.9805,39.1289 L81.0391,29.1191 C81.4785,28.6797 81.4297,28.0449 80.9902,27.6543 C80.6484,27.2637 79.9648,27.2148 79.5254,27.6055 L69.4668,37.6641 C69.125,38.0059 69.125,38.7383 69.5156,39.1289 Z M69.418,58.8066 C69.418,48.0156 60.6289,39.1289 49.7891,39.1289 C38.9492,39.1289 30.1602,48.0156 30.1602,58.8066 C30.1602,62.6641 31.2832,66.2773 33.2852,69.3047 L66.293,69.3047 C68.2949,66.2773 69.418,62.6641 69.418,58.8066 Z M6.6738,58.9043 L20.8828,58.9043 C21.5176,58.9043 21.9082,58.416 21.9082,57.8789 C21.9082,57.293 21.4688,56.8047 20.8828,56.8047 L6.6738,56.8047 C6.1367,56.8047 5.6484,57.293 5.6484,57.8789 C5.6484,58.416 6.1367,58.9043 6.6738,58.9043 Z M78.6953,58.9043 L92.904,58.9043 C93.49,58.9043 93.93,58.416 93.93,57.8789 C93.93,57.293 93.49,56.8047 92.904,56.8047 L78.6953,56.8047 C78.1582,56.8047 77.6699,57.293 77.6699,57.8789 C77.6699,58.416 78.1582,58.9043 78.6953,58.9043 Z M1.9863,74.48047 L97.592,74.48047 C98.275,74.48047 98.812,74.04102 98.812,73.45508 C98.812,72.82031 98.275,72.38086 97.592,72.38086 L1.9863,72.38086 C1.3027,72.38086 0.76562,72.82031 0.76562,73.45508 C0.76562,74.04102 1.3027,74.48047 1.9863,74.48047 Z" id="Shape"></path>
                </g>
            </g>
        </g>
    </g>
</svg>